<?xml version="1.0" encoding="utf-8"?>
<!-- Generator: Adobe Illustrator 16.0.0, SVG Export Plug-In . SVG Version: 6.00 Build 0)  -->
<!DOCTYPE svg PUBLIC "-//W3C//DTD SVG 1.1//EN" "http://www.w3.org/Graphics/SVG/1.1/DTD/svg11.dtd">
<svg version="1.1" id="Layer_1" xmlns="http://www.w3.org/2000/svg" xmlns:xlink="http://www.w3.org/1999/xlink" x="0px" y="0px"
	 width="1400px" height="980px" viewBox="0 0 1400 980" enable-background="new 0 0 1400 980" xml:space="preserve">
<g>
	<g>
		<g>
			<rect fill="#FFFFFF" width="1399.993" height="980"/>
		</g>
	</g>
	<g>
		<g>
			<polygon fill="none" points="646.01,676.075 646.01,676.069 646.01,676.075 			"/>
		</g>
	</g>
	<g>
		<g>
			<path fill="#F1604D" d="M525.788,374.994c-0.68-0.079-1.193-0.654-1.193-1.338V262.939c0-9.297-7.559-16.858-16.851-16.858
				c-9.293,0-16.854,7.562-16.854,16.858v110.716c0,0.684-0.514,1.259-1.193,1.338c-16.474,1.877-32.499,6.334-47.629,13.244
				c-56.251,25.687-92.597,82.205-92.597,143.983v64.073H666.02v-64.073C666.02,451.669,605.733,384.078,525.788,374.994z
				 M510.449,588.12H359.743c-0.744,0-1.346-0.603-1.346-1.347v-21.738c0-0.744,0.602-1.346,1.346-1.346s1.346,0.602,1.346,1.346
				v20.393h149.36c0.744,0,1.346,0.602,1.346,1.346S511.193,588.12,510.449,588.12z M507.745,276.564
				c-5.954,0-10.798-4.843-10.798-10.796c0-5.958,4.844-10.803,10.798-10.803c5.954,0,10.798,4.846,10.798,10.803
				C518.543,271.721,513.699,276.564,507.745,276.564z M636.583,529.207c-0.744,0-1.346-0.602-1.346-1.346
				c0-98.703-96.457-118.651-97.431-118.84c-0.729-0.145-1.206-0.849-1.063-1.58s0.851-1.209,1.578-1.065
				c0.997,0.195,99.609,20.534,99.609,121.485C637.929,528.605,637.327,529.207,636.583,529.207z"/>
		</g>
		<g>
			<path fill="#231F20" d="M502.662,249.798c-5.954,0-10.798,4.846-10.798,10.803c0,5.953,4.844,10.796,10.798,10.796
				c5.954,0,10.798-4.843,10.798-10.796C513.46,254.644,508.616,249.798,502.662,249.798z M502.662,268.705
				c-4.47,0-8.105-3.636-8.105-8.104c0-4.472,3.636-8.111,8.105-8.111s8.106,3.639,8.106,8.111
				C510.768,265.069,507.132,268.705,502.662,268.705z"/>
		</g>
		<g>
			<path fill="#231F20" d="M522.204,367.292v-109.52c0-10.779-8.768-19.551-19.543-19.551c-10.777,0-19.546,8.771-19.546,19.551
				v109.52c-16.335,1.987-32.225,6.468-47.248,13.327c-57.208,26.126-94.171,83.604-94.171,146.434v65.42
				c0,0.744,0.602,1.346,1.346,1.346h319.241c0.744,0,1.346-0.607,1.346-1.352v-65.414
				C663.629,445.532,602.918,377.063,522.204,367.292z M660.937,591.127H344.388v-64.073c0-61.779,36.346-118.296,92.597-143.983
				c15.131-6.91,31.156-11.366,47.629-13.244c0.68-0.079,1.193-0.654,1.193-1.338V257.772c0-9.297,7.561-16.858,16.854-16.858
				c9.292,0,16.851,7.562,16.851,16.858v110.716c0,0.684,0.514,1.259,1.193,1.338c79.945,9.084,140.231,76.676,140.231,157.227
				V591.127z"/>
		</g>
		<g>
			<path fill="#231F20" d="M505.366,580.261h-149.36v-20.393c0-0.744-0.602-1.346-1.346-1.346s-1.346,0.602-1.346,1.346v21.738
				c0,0.744,0.602,1.347,1.346,1.347h150.706c0.744,0,1.346-0.603,1.346-1.347S506.11,580.261,505.366,580.261z"/>
		</g>
		<g>
			<path fill="#231F20" d="M533.237,401.209c-0.727-0.145-1.436,0.334-1.578,1.065s0.334,1.436,1.063,1.58
				c0.974,0.189,97.431,20.137,97.431,118.84c0,0.744,0.602,1.346,1.346,1.346s1.346-0.602,1.346-1.346
				C632.846,421.743,534.234,401.404,533.237,401.209z"/>
		</g>
	</g>
	<g>
		<g>
			<path fill="#F1604D" d="M364.126,261.644c-0.001,0-0.002,0-0.004,0c-0.665-0.145-1.29-0.216-1.911-0.216h-60.412
				c-0.606,0-1.218,0.061-1.818,0.184c-4.168,0.854-7.195,4.567-7.195,8.826v37.206h78.435v-37.206
				C371.221,266.234,368.238,262.535,364.126,261.644z"/>
		</g>
		<g>
			<path fill="#FEE654" d="M363.692,250.228c0-51.461-41.866-93.326-93.326-93.326c-10.198,0-20.237,1.653-29.859,4.919v5.616
				v41.168v4.601c3.714-0.67,8.871-1.346,14.594-1.346c8.489,0,16.014,1.464,22.366,4.352c6.962,3.166,12.477,8.059,16.394,14.537
				c4.408,7.288,6.816,16.706,7.165,28.014c0.257-0.018,0.517-0.026,0.774-0.026h60.412c0.331,0,0.669,0.016,1.008,0.047
				C363.541,255.575,363.692,252.828,363.692,250.228z M346.037,243.11c-0.068,0.01-0.137,0.016-0.204,0.016
				c-0.655,0-1.229-0.479-1.329-1.144c-9.534-62.807-74.817-69.151-75.475-69.209c-0.74-0.063-1.29-0.715-1.226-1.457
				c0.063-0.741,0.714-1.262,1.457-1.225c0.68,0.058,68.059,6.607,77.905,71.485C347.277,242.313,346.772,243,346.037,243.11z"/>
		</g>
		<g>
			<path fill="#F1604D" d="M236.075,253.162c-4.68,1.704-7.105,6.896-5.404,11.577c1.295,3.56,4.708,5.95,8.491,5.95
				c1.055,0,2.093-0.184,3.085-0.544c21.063-7.661,37.49-20.663,48.847-38.657c-0.572-0.896-1.189-1.748-1.829-2.577
				c-0.277-0.36-0.518-0.754-0.809-1.102c-1.043-1.249-2.167-2.414-3.375-3.489c-0.274-0.247-0.591-0.447-0.876-0.684
				c-0.961-0.802-1.944-1.58-3.001-2.277c-0.494-0.326-1.037-0.597-1.553-0.902c-0.723-0.423-1.46-0.831-2.224-1.209
				C270.923,230.438,258.575,244.982,236.075,253.162z"/>
		</g>
		<g>
			<path fill="#F1604D" d="M205.315,179.386v17.269c0,5.847,4.759,10.604,10.607,10.604h21.892v-38.476h-21.892
				C210.074,168.783,205.315,173.539,205.315,179.386z"/>
		</g>
		<g>
			<path fill="#B5D55A" d="M291.35,310.336l-73.218,78.206c-3.633,3.883-6.703,11.655-6.703,16.974v285.445
				c0,4.962,4.036,8.998,8.996,8.998h196.504c4.96,0,8.996-4.036,8.996-8.998V399.309c0-5.379-2.561-13.682-5.592-18.128
				l-48.304-70.844H291.44H291.35z M299.923,336.947c0.555,0.494,0.601,1.346,0.105,1.901l-47.574,53.089
				c-0.239,0.226-14.136,13.004-14.136,28.059v138.586c0,0.744-0.603,1.346-1.346,1.346c-0.744,0-1.346-0.602-1.346-1.346V419.995
				c0-16.264,14.312-29.405,14.922-29.957l47.474-52.989C298.52,336.494,299.37,336.447,299.923,336.947z"/>
		</g>
		<g>
			<path fill="#231F20" d="M417.473,374.499l-48.643-71.341v0.665c0,0.744-0.604,1.346-1.346,1.346h-0.539l48.304,70.844
				c3.031,4.446,5.592,12.749,5.592,18.128v291.652c0,4.962-4.036,8.998-8.996,8.998H215.341c-4.96,0-8.996-4.036-8.996-8.998
				V400.349c0-5.319,3.07-13.091,6.703-16.974l73.218-78.206h0.091c-0.743,0-1.346-0.602-1.346-1.346v-1.139
				c-0.109,0.063-0.222,0.124-0.312,0.218l-73.617,78.632c-4.096,4.377-7.43,12.82-7.43,18.814v285.445
				c0,6.447,5.244,11.689,11.688,11.689h196.504c6.444,0,11.688-5.242,11.688-11.689V394.142
				C423.534,388.21,420.815,379.397,417.473,374.499z"/>
		</g>
		<g>
			<path fill="#231F20" d="M230.543,414.828v138.586c0,0.744,0.602,1.346,1.346,1.346c0.744,0,1.346-0.602,1.346-1.346V414.828
				c0-15.055,13.896-27.833,14.136-28.059l47.574-53.089c0.496-0.555,0.45-1.407-0.105-1.901c-0.553-0.5-1.404-0.453-1.901,0.103
				l-47.474,52.989C244.855,385.423,230.543,398.564,230.543,414.828z"/>
		</g>
		<g>
			<path fill="#231F20" d="M210.84,202.091c-5.849,0-10.607-4.756-10.607-10.604v-17.269c0-5.848,4.759-10.604,10.607-10.604h21.892
				v-2.692H210.84c-7.333,0-13.3,5.965-13.3,13.296v17.269c0,7.33,5.967,13.296,13.3,13.296h21.892v-2.692H210.84z"/>
		</g>
		<g>
			<path fill="#231F20" d="M274.568,215.29c0.516,0.305,1.059,0.576,1.553,0.902C275.626,215.866,275.084,215.595,274.568,215.29z"
				/>
		</g>
		<g>
			<path fill="#231F20" d="M279.122,218.469c0.285,0.236,0.602,0.437,0.876,0.684C279.723,218.905,279.407,218.705,279.122,218.469z
				"/>
		</g>
		<g>
			<path fill="#231F20" d="M283.373,222.641c0.291,0.347,0.531,0.742,0.809,1.102C283.904,223.383,283.664,222.988,283.373,222.641z
				"/>
		</g>
		<g>
			<path fill="#231F20" d="M286.01,226.319c-11.357,17.995-27.784,30.996-48.847,38.657c-0.993,0.36-2.031,0.544-3.085,0.544
				c-3.783,0-7.196-2.39-8.491-5.95c-1.701-4.68,0.724-9.873,5.404-11.577c22.5-8.179,34.849-22.724,41.352-33.914
				c-0.37-0.184-0.697-0.416-1.074-0.586c-0.445-0.202-0.941-0.344-1.398-0.534c-6.31,10.767-18.202,24.651-39.8,32.505
				c-6.076,2.211-9.222,8.953-7.013,15.026c1.68,4.62,6.109,7.722,11.02,7.722c1.37,0,2.717-0.237,4.006-0.708
				c21.188-7.704,37.771-20.734,49.42-38.649c-0.335-0.636-0.664-1.277-1.029-1.882C286.334,226.743,286.155,226.548,286.01,226.319
				z"/>
		</g>
		<g>
			<path fill="#231F20" d="M235.424,162.27v-5.616c9.622-3.266,19.661-4.919,29.859-4.919c51.46,0,93.326,41.865,93.326,93.326
				c0,2.6-0.151,5.348-0.473,8.555c-0.339-0.031-0.677-0.047-1.008-0.047c0.806,0,1.642,0.095,2.487,0.279
				c0.401,0.087,0.777,0.234,1.161,0.36c0.351-3.423,0.526-6.376,0.526-9.147c0-52.944-43.074-96.019-96.019-96.019
				c-10.821,0-21.469,1.812-31.65,5.382c-0.539,0.189-0.901,0.699-0.901,1.27v5.229h1.346
				C234.821,160.923,235.424,161.525,235.424,162.27z"/>
		</g>
		<g>
			<path fill="#231F20" d="M296.716,253.568c-0.257,0-0.517,0.008-0.774,0.026c-0.349-11.308-2.757-20.726-7.165-28.014
				c0.261,0.434,0.259,0.976-0.007,1.404c-0.399,0.646-0.854,1.235-1.267,1.872c3.551,6.715,5.482,15.2,5.742,25.283
				c0.369-0.116,0.728-0.255,1.113-0.334C295.139,253.647,295.932,253.568,296.716,253.568z"/>
		</g>
		<g>
			<path fill="#231F20" d="M359.043,256.477L359.043,256.477c-0.669-0.145-1.293-0.216-1.915-0.216c0.622,0,1.246,0.071,1.911,0.216
				C359.041,256.477,359.042,256.477,359.043,256.477z"/>
		</g>
		<g>
			<path fill="#231F20" d="M272.384,211.044c-6.352-2.887-13.877-4.352-22.366-4.352c-5.723,0-10.88,0.676-14.594,1.346v-4.601
				c0,0.744-0.604,1.346-1.346,1.346h-1.346v4.882c0,0.405,0.182,0.786,0.493,1.041c0.313,0.258,0.724,0.366,1.119,0.279
				c3.627-0.731,9.291-1.601,15.674-1.601c7.501,0,14.142,1.238,19.853,3.576c0.264-0.452,0.535-0.904,0.781-1.346
				C270.992,210.999,271.746,210.752,272.384,211.044z"/>
		</g>
		<g>
			<path fill="#231F20" d="M276.121,216.192c1.057,0.697,2.04,1.475,3.001,2.277C278.161,217.667,277.178,216.889,276.121,216.192z"
				/>
		</g>
		<g>
			<path fill="#231F20" d="M286.041,226.275c-0.569-0.894-1.221-1.707-1.859-2.532c0.639,0.829,1.257,1.68,1.829,2.577
				C286.02,226.304,286.031,226.291,286.041,226.275z"/>
		</g>
		<g>
			<path fill="#231F20" d="M272.379,214.02c-0.011,0.019-0.024,0.04-0.036,0.061c0.764,0.378,1.501,0.786,2.224,1.209
				C273.841,214.864,273.147,214.401,272.379,214.02z"/>
		</g>
		<g>
			<path fill="#231F20" d="M279.999,219.152c1.207,1.075,2.331,2.24,3.375,3.489C282.33,221.393,281.206,220.228,279.999,219.152z"
				/>
		</g>
		<g>
			<path fill="#231F20" d="M235.424,203.438V162.27c0-0.744-0.604-1.346-1.346-1.346h-1.346v2.692v38.476v2.692h1.346
				C234.821,204.784,235.424,204.182,235.424,203.438z"/>
		</g>
		<g>
			<path fill="#231F20" d="M288.778,225.581c-3.917-6.478-9.431-11.371-16.394-14.537c-0.639-0.292-1.392-0.045-1.732,0.57
				c-0.246,0.442-0.517,0.894-0.781,1.346c0.458,0.189,0.953,0.332,1.398,0.534c0.377,0.171,0.705,0.402,1.074,0.586
				c0.012-0.021,0.025-0.042,0.036-0.061c0.768,0.381,1.462,0.844,2.188,1.27c0.517,0.305,1.059,0.576,1.553,0.902
				c1.057,0.697,2.04,1.475,3.001,2.277c0.285,0.236,0.601,0.437,0.876,0.684c1.207,1.075,2.331,2.24,3.375,3.489
				c0.291,0.347,0.531,0.742,0.809,1.102c0.638,0.826,1.29,1.638,1.859,2.532c-0.009,0.016-0.021,0.029-0.03,0.044
				c0.145,0.229,0.324,0.423,0.464,0.655c0.365,0.605,0.694,1.246,1.029,1.882c0.413-0.636,0.868-1.225,1.267-1.872
				C289.037,226.556,289.039,226.015,288.778,225.581z"/>
		</g>
		<g>
			<path fill="#231F20" d="M287.704,302.477v-37.206c0-4.259,3.026-7.972,7.195-8.826c-0.393,0.084-0.801-0.016-1.112-0.271
				c-0.313-0.252-0.497-0.628-0.502-1.031c-0.005-0.342-0.03-0.668-0.038-1.004c-4.823,1.509-8.235,5.995-8.235,11.132v37.414
				c0.205-0.121,0.43-0.208,0.672-0.208H287.704z"/>
		</g>
		<g>
			<path fill="#231F20" d="M360.112,256.256c-0.23,0.166-0.506,0.252-0.785,0.252c-0.095,0-0.189-0.01-0.284-0.031
				c4.112,0.891,7.095,4.59,7.095,8.794v37.206h1.518c0.446,0,0.861,0.221,1.112,0.589l0.062,0.092v-37.887
				c0-5.053-3.334-9.502-8.055-11.063c-0.038,0.371-0.068,0.72-0.11,1.102S360.422,256.032,360.112,256.256z"/>
		</g>
		<g>
			<path fill="#231F20" d="M286.357,305.169h80.588h0.539c0.743,0,1.346-0.602,1.346-1.346v-0.665l-0.062-0.092
				c-0.251-0.368-0.667-0.589-1.112-0.589h-1.518h-78.435h-2.021c-0.242,0-0.467,0.087-0.672,0.208v1.139
				C285.011,304.567,285.615,305.169,286.357,305.169z"/>
		</g>
		<g>
			<path fill="#231F20" d="M293.786,256.174c0.312,0.255,0.719,0.355,1.112,0.271c0.6-0.124,1.212-0.184,1.818-0.184h60.412
				c0.622,0,1.246,0.071,1.914,0.216h0.001c0.095,0.021,0.189,0.031,0.284,0.031c0.279,0,0.555-0.086,0.785-0.252
				c0.311-0.224,0.512-0.565,0.554-0.947s0.072-0.731,0.11-1.102c-0.384-0.126-0.76-0.273-1.161-0.36
				c-0.846-0.184-1.682-0.279-2.487-0.279h-60.412c-0.785,0-1.577,0.079-2.357,0.237c-0.385,0.079-0.744,0.218-1.113,0.334
				c0.008,0.336,0.033,0.663,0.038,1.004C293.29,255.546,293.473,255.922,293.786,256.174z"/>
		</g>
		<g>
			<path fill="#231F20" d="M264.177,164.925c-0.743-0.037-1.393,0.484-1.457,1.225c-0.064,0.742,0.485,1.394,1.226,1.457
				c0.658,0.058,65.941,6.402,75.475,69.209c0.1,0.665,0.674,1.144,1.329,1.144c0.067,0,0.135-0.005,0.204-0.016
				c0.735-0.11,1.24-0.797,1.128-1.533C332.236,171.532,264.857,164.983,264.177,164.925z"/>
		</g>
	</g>
	<g>
		<g>
			<path fill="#FFFFFF" d="M971.386,543.289H866.139c-4.462,0-8.596,2.433-10.789,6.345c-1.023,1.838-1.565,3.917-1.565,6.019
				c0,0.849,0.095,1.722,0.281,2.605c1.215,5.647,6.292,9.746,12.073,9.746h105.247c5.785,0,10.861-4.102,12.072-9.749
				c0-0.003,0.002-0.003,0.002-0.003c0.185-0.873,0.278-1.745,0.278-2.6c0-2.106-0.542-4.184-1.567-6.016
				c0-0.003-0.002-0.003-0.002-0.003C979.981,545.722,975.851,543.289,971.386,543.289z"/>
		</g>
		<g>
			<path fill="#FEE654" d="M1130.671,306.537c10.871,0,19.714-8.845,19.714-19.714s-8.843-19.714-19.714-19.714h-1.643h-422.18
				c-10.868,0-19.708,8.845-19.708,19.714s8.84,19.714,19.708,19.714h19.99h383.851H1130.671z"/>
		</g>
		<g>
			<path fill="#FEE654" d="M751.256,482.976l0.859,1.175c0.595,0.813,1.191,1.623,1.8,2.422l1.037,1.351
				c0.531,0.676,1.071,1.362,1.623,2.045c0.134,0.119,0.251,0.25,0.329,0.41l0.879,1.089c0.609,0.739,1.227,1.464,1.847,2.195h0.001
				l1.047,1.226c0.819,0.941,1.649,1.866,2.491,2.789l0.848,0.926c0.855,0.92,1.712,1.827,2.582,2.727l1.367,1.378
				c0.577,0.578,1.157,1.159,1.744,1.732c0.002,0-0.002-0.006,0.006,0.005c0.483,0.474,0.978,0.946,1.472,1.415
				c0.568,0.541,1.142,1.08,1.719,1.608c0.001,0.003,0.002,0.003,0.004,0.003l1.583,1.448c0.559,0.503,1.122,1,1.694,1.491
				c0.555,0.491,1.104,0.973,1.659,1.443c0.001,0.003,0.002,0.003,0.004,0.003c0.189,0.16,0.382,0.32,0.574,0.479
				c0.269,0.226,0.533,0.446,0.803,0.67l0.051,0.042l0.287,0.237c1.116,0.923,2.243,1.827,3.384,2.721c0.002,0,0.003,0,0.004,0.003
				l1.446,1.133c0.002,0,0.003,0,0.003,0c0.684,0.523,1.38,1.039,2.077,1.549l0.001,0.003c0.003,0,0.007,0,0.01,0.002l1.399,1.036
				c0.002,0.003,0.004,0.003,0.006,0.003c0.72,0.518,1.443,1.028,2.171,1.535l1.363,0.938c0.002,0.003,0.003,0.003,0.004,0.003
				c0.761,0.521,1.522,1.033,2.29,1.535l0.097,0.063l1.092,0.705l0.003,0.002c0.003,0.003,0.004,0.003,0.007,0.003
				c0.001,0.003,0.001,0.003,0.003,0.003c0.838,0.541,1.679,1.08,2.531,1.608l0.371,0.224c3.137,1.925,6.384,3.766,9.646,5.472
				l0.746,0.392c0.002,0,0.002,0,0.003,0c0.977,0.505,1.966,0.999,2.958,1.482c0.001,0.003,0.004,0,0.005,0.003l0.842,0.413
				c1.021,0.489,2.043,0.973,3.075,1.446l0.585,0.263c4.778,2.153,9.701,4.091,14.625,5.753c1.351,0.454,2.564,0.841,3.779,1.22
				l0.034,1.42l0.395-1.286h0.001c1.222,0.373,2.452,0.736,3.683,1.081c2.613,0.73,5.23,1.386,7.854,1.977
				c0.874,0.2,1.752,0.35,2.627,0.531c1.608,0.337,3.217,0.668,4.829,0.952c2.77-4.265,7.52-6.876,12.625-6.876h105.247
				c5.118,0,9.876,2.622,12.638,6.899c1.531-0.271,3.103-0.607,4.671-0.934c0.893-0.189,1.767-0.339,2.666-0.541
				c2.587-0.589,5.194-1.238,7.778-1.959c1.424-0.399,2.636-0.758,3.85-1.128l0.863,1.141l-0.398-1.285
				c1.203-0.374,2.41-0.755,3.6-1.16c5.102-1.719,10.011-3.651,14.772-5.805l0.612-0.269l0.001-0.002
				c1.021-0.466,2.035-0.949,3.044-1.434c0,0,0,0,0.001,0l0.873-0.426c0.985-0.481,1.965-0.97,2.937-1.475l0.785-0.408
				c0.001,0,0.001-0.002,0.003-0.002c3.25-1.699,6.462-3.521,9.546-5.414l0.454-0.273c0.001-0.002,0.002-0.005,0.004-0.005
				c0.688-0.424,1.367-0.86,2.048-1.296l1.68-1.086c0.003,0,0.003,0,0.005-0.003c0.753-0.497,1.508-1.002,2.257-1.509
				c0.001-0.003,0.001-0.003,0.003-0.003l1.396-0.968c0.719-0.499,1.432-0.999,2.142-1.512l0.504-0.371l0.953-0.704c0,0,0,0,0.001,0
				l0.261-0.192l0.097-0.07c0.564-0.416,1.13-0.834,1.688-1.26l1.541-1.201c0.002-0.003,0.003-0.006,0.005-0.006
				c1.089-0.854,2.169-1.725,3.239-2.61c0.602-0.492,1.195-0.979,1.782-1.478c0.001,0,0.001-0.003,0.001-0.003l0.037-0.031
				l6.623-5.969h0.001c0.001-0.003,0.001-0.005,0.003-0.005c0.49-0.463,0.977-0.931,1.459-1.399c0.621-0.609,1.236-1.222,1.853-1.84
				l1.255-1.272c0.893-0.921,1.772-1.841,2.635-2.776c0.002-0.003,0.002-0.006,0.003-0.006l0.759-0.825c0,0,0.001,0,0.002-0.003
				c0.856-0.938,1.705-1.888,2.54-2.847l1.015-1.189c0.638-0.749,1.262-1.482,1.877-2.231l0.003-0.003
				c0.002,0,0.002-0.002,0.002-0.002l1.035-1.278c0.641-0.792,1.221-1.528,1.799-2.269l1.024-1.333
				c0.612-0.805,1.214-1.617,1.809-2.429l0.858-1.173c0.797-1.112,1.585-2.245,2.361-3.386l20.532-170.349H728.356l20.536,170.357
				C749.666,480.728,750.451,481.858,751.256,482.976z"/>
		</g>
		<g>
			<path fill="#FFFFFF" d="M1005.668,242.477c5.966,0,10.819-4.854,10.819-10.816c0-5.963-4.854-10.817-10.819-10.817
				c-5.965,0-10.818,4.854-10.818,10.817C994.85,237.623,999.703,242.477,1005.668,242.477z"/>
		</g>
		<g>
			<path fill="#FFFFFF" d="M939.544,215.293c14.048,0,25.477-11.429,25.477-25.479c0-14.048-11.429-25.477-25.477-25.477
				c-14.049,0-25.479,11.429-25.479,25.477C914.064,203.864,925.495,215.293,939.544,215.293z"/>
		</g>
		<g>
			<path fill="#FFFFFF" d="M838.897,241.696c5.533,0,10.036-4.501,10.036-10.036c0-5.535-4.503-10.039-10.036-10.039
				s-10.035,4.504-10.035,10.039C828.862,237.194,833.364,241.696,838.897,241.696z"/>
		</g>
		<g>
			<path fill="#6ECEEA" d="M706.849,264.417h421.607c5.271-5.566,8.165-12.826,8.165-20.511c0-16.467-13.402-29.862-29.876-29.862
				c-13.509,0-25.366,9.128-28.834,22.201c-0.11,0.413-0.409,0.75-0.806,0.907c-0.397,0.155-0.846,0.116-1.207-0.108
				c-7.273-4.533-15.923-6.189-24.529-4.512c-0.688,0.129-1.366-0.287-1.554-0.959c-2.185-7.838-6.451-14.989-12.336-20.679
				c-0.269-0.26-0.417-0.621-0.41-0.994l0.021-0.802c0-15.539-12.644-28.18-28.185-28.18c-4.768,0-9.481,1.217-13.636,3.518
				c-0.384,0.218-0.848,0.229-1.242,0.031c-0.395-0.192-0.67-0.565-0.738-0.999c-4.348-27.375-27.651-47.247-55.409-47.247
				c-30.944,0-56.121,25.174-56.121,56.12c0,1.459,0.075,2.903,0.191,4.338c0.031,0.392-0.109,0.775-0.386,1.054
				c-0.276,0.281-0.66,0.421-1.052,0.397c-4.865-0.344-9.876,0.082-14.636,1.293c-0.457,0.124-0.942-0.016-1.278-0.347
				c-6.893-6.805-16.015-10.554-25.683-10.554c-18.852,0-34.478,14.126-36.35,32.862c-0.041,0.41-0.268,0.778-0.614,0.999
				c-0.347,0.226-0.775,0.281-1.165,0.14c-4.827-1.667-9.868-2.514-14.983-2.514c-11.188,0-21.992,4.117-30.421,11.592
				c-0.27,0.239-0.626,0.36-0.986,0.336c-0.36-0.026-0.695-0.195-0.93-0.468c-5.696-6.665-13.97-10.485-22.703-10.485
				c-16.464,0-29.86,13.396-29.86,29.862c0,4.722,1.122,9.394,3.25,13.567H706.849z M1005.668,218.151
				c7.45,0,13.512,6.06,13.512,13.509c0,7.448-6.062,13.509-13.512,13.509c-7.449,0-13.511-6.061-13.511-13.509
				C992.157,224.211,998.219,218.151,1005.668,218.151z M939.544,161.644c15.533,0,28.169,12.636,28.169,28.169
				s-12.636,28.172-28.169,28.172s-28.172-12.639-28.172-28.172S924.011,161.644,939.544,161.644z M838.897,218.929
				c7.019,0,12.729,5.711,12.729,12.731c0,7.017-5.71,12.728-12.729,12.728s-12.728-5.711-12.728-12.728
				C826.17,224.64,831.879,218.929,838.897,218.929z"/>
		</g>
		<g>
			<path fill="#BCBEC0" d="M1088.46,484.54l-0.006,0.005v0.003l-0.858,1.172l-0.001,0.002c-0.002,0,0,0-0.002,0.003
				c-0.604,0.828-1.217,1.651-1.84,2.471l-1.039,1.354c0,0-0.002,0.003-0.004,0.006c-0.589,0.754-1.181,1.501-1.781,2.248
				c-0.395,0.491-0.745,0.928-1.105,1.361c-0.622,0.755-1.254,1.504-1.891,2.251l-1.043,1.223c-0.002,0-0.002,0-0.002,0
				c-0.848,0.976-1.713,1.94-2.582,2.895l-0.764,0.833c-0.882,0.955-1.775,1.894-2.678,2.824h-0.001l-1.288,1.307
				c-0.002,0.003-0.004,0.003-0.006,0.005c-0.623,0.623-1.247,1.249-1.88,1.867c-0.001,0.003-0.001,0.003-0.001,0.003
				c-0.492,0.479-0.988,0.951-1.487,1.425l-0.036,0.034l-1.726,1.625c-0.002,0.002-0.006,0.002-0.009,0.005
				s-0.003,0.005-0.005,0.008l-1.583,1.438l-1.753,1.551c-0.002,0.003-0.005,0.003-0.008,0.006l-1.648,1.433
				c-0.6,0.508-1.204,1.004-1.813,1.501c-0.001,0.003-0.003,0.003-0.004,0.006c-1.086,0.896-2.184,1.782-3.292,2.652l-1.575,1.23
				h-0.001l-0.001,0.003c-0.126,0.098-0.257,0.189-0.384,0.286c-0.443,0.332-0.889,0.663-1.333,0.994l-0.273,0.2l-0.083,0.063
				h-0.002l-1.475,1.086c-0.729,0.526-1.454,1.036-2.186,1.544l-1.411,0.978c-0.768,0.523-1.535,1.036-2.305,1.544l-0.59,0.381
				l-0.665,0.431c-0.002,0-0.003,0-0.004,0c-0.002,0.003-0.003,0.006-0.004,0.006l-0.45,0.289c-0.692,0.441-1.383,0.886-2.085,1.32
				l-0.461,0.278c-0.002,0-0.002,0-0.002,0c-0.917,0.563-1.865,1.104-2.803,1.653c-2.264,1.328-4.564,2.63-6.906,3.854l-0.792,0.413
				c-0.001,0-0.002,0-0.004,0.003c-0.988,0.51-1.986,1.007-2.988,1.501c0,0,0,0-0.001,0l-0.889,0.432
				c-1.026,0.494-2.058,0.982-3.097,1.459l-0.645,0.284c-4.82,2.179-9.813,4.146-14.813,5.831c-1.395,0.471-2.622,0.862-3.849,1.241
				c0,0-0.475,0.147-0.476,0.149c-1.232,0.376-2.465,0.739-3.714,1.089c-2.65,0.738-5.274,1.394-7.884,1.985
				c-0.831,0.188-1.654,0.336-2.48,0.513c-1.46,0.305-2.923,0.636-4.371,0.898c0.727,1.788,1.105,3.713,1.105,5.656
				c0,0.407-0.018,0.817-0.052,1.228c0.133-0.023,0.268-0.048,0.4-0.071l1.994-0.373c0.818-0.158,1.623-0.326,2.428-0.494
				l1.758-0.379c0.938-0.213,1.669-0.376,2.396-0.55l1.727-0.42c0.8-0.197,1.603-0.4,2.402-0.607l1.481-0.41
				c1.532-0.418,3.046-0.86,4.559-1.315l7.891-2.615c0.586-0.211,1.177-0.427,1.758-0.647c0.886-0.328,1.531-0.565,2.176-0.814
				l1.813-0.724c1.146-0.463,2.281-0.931,3.417-1.414c0.726-0.308,1.447-0.615,2.168-0.937l1.953-0.889
				c0.627-0.286,1.253-0.575,1.873-0.87l8.119-4.12c0.413-0.218,0.827-0.438,1.234-0.667c1.128-0.621,2.246-1.252,3.35-1.901
				l2.085-1.241c0.526-0.315,1.054-0.631,1.575-0.954c0.001-0.003,0.001-0.003,0.001-0.003l1.597-0.996
				c0.012-0.008,0.021-0.014,0.032-0.021l0.16-0.103c0.595-0.378,1.19-0.757,1.78-1.144l5.028-3.399
				c0.844-0.594,1.683-1.196,2.511-1.804l0.011-0.008l0.888-0.645c1.086-0.804,2.15-1.616,3.207-2.437l1.192-0.944
				c0.002,0,0.002,0,0.002,0l0.026-0.021c0.738-0.587,1.41-1.123,2.075-1.667l1.284-1.065c0.674-0.56,1.34-1.128,2.005-1.701
				l1.206-1.046c0.75-0.655,1.488-1.32,2.222-1.988c0.002,0,0.002-0.005,0.004-0.005l0.895-0.808c0-0.002,0-0.002,0.002-0.002
				c1.012-0.931,2.018-1.88,3.012-2.84c0,0,0.001,0,0.003-0.003l0.718-0.71c0.001-0.002,0.004-0.002,0.005-0.005
				c0.761-0.744,1.512-1.493,2.259-2.253l1.027-1.06c0.646-0.665,1.285-1.336,1.92-2.012c0.001-0.003,0.001-0.005,0.002-0.005
				l1.031-1.109c0.002-0.003,0.002-0.006,0.005-0.008c0.653-0.708,1.295-1.423,1.933-2.144c0.001,0,0.001,0,0.003-0.002l0.887-0.999
				c0.922-1.055,1.834-2.119,2.736-3.192c25.269-30.37,39.188-68.83,39.188-108.294V359.6c-0.082,0.021-0.166,0.021-0.248,0.042
				c-0.187,0.039-0.377,0.058-0.564,0.092c-0.537,0.092-1.074,0.145-1.62,0.161c-0.13,0.005-0.254,0.039-0.384,0.039
				c-0.133,0-0.263-0.023-0.395-0.029c-0.226-0.005-0.449-0.023-0.676-0.044c-0.344-0.032-0.686-0.077-1.026-0.137
				c-0.229-0.04-0.455-0.087-0.681-0.142c-0.322-0.076-0.638-0.171-0.952-0.276c-0.14-0.044-0.285-0.068-0.422-0.121v30.84
				c0,32.51-9.604,63.908-27.775,90.802C1090.204,482.079,1089.338,483.314,1088.46,484.54z"/>
		</g>
		<g>
			<path fill="#FFFFFF" d="M719.428,356.213c3.109-1.604,5.042-4.764,5.042-8.25v-24.459c0-5.114-4.162-9.273-9.278-9.273
				c-5.115,0-9.276,4.159-9.276,9.273v24.459c0,3.505,1.948,6.673,5.084,8.269C713.651,357.583,716.799,357.565,719.428,356.213z"/>
		</g>
		<g>
			<path fill="#BCBEC0" d="M753.659,501.517L753.659,501.517l0.871,0.983c0.002,0.003,0.003,0.003,0.004,0.003
				c0.645,0.726,1.291,1.448,1.948,2.161l1.032,1.106c0.001,0.003,0.001,0.003,0.003,0.003c0.636,0.684,1.278,1.354,1.926,2.021
				c0.342,0.36,0.676,0.707,1.016,1.049c0.755,0.769,1.511,1.525,2.278,2.272l0.702,0.691c1.002,0.97,2.009,1.922,3.029,2.86
				l0.878,0.797c0.741,0.673,1.488,1.343,2.24,2.003l1.194,1.036c0.67,0.576,1.34,1.144,2.016,1.712
				c0.003,0.002,0.005,0.002,0.007,0.002l1.275,1.058c0.695,0.564,1.405,1.136,2.12,1.701l1.167,0.931
				c1.073,0.83,2.152,1.653,3.242,2.463c0.001,0,0.003,0,0.004,0l0.612,0.439c0.004,0.003,0.007,0.008,0.01,0.008l0.194,0.14
				c0.855,0.634,1.706,1.246,2.564,1.848l0.004,0.003l0.003,0.003l5.003,3.386c0.664,0.432,1.336,0.857,2.007,1.278
				c0.536,0.342,1.052,0.67,1.564,0.983c0.617,0.384,1.231,0.752,1.847,1.117l1.771,1.063c1.121,0.649,2.259,1.293,3.407,1.925
				c0.437,0.244,0.869,0.476,1.301,0.704l4.235,2.217c0.626,0.313,1.252,0.625,1.885,0.933c0.645,0.318,1.278,0.626,1.92,0.929
				c0.635,0.302,1.271,0.594,1.9,0.883l1.936,0.881c0.749,0.334,1.511,0.657,2.269,0.976c1.094,0.468,2.187,0.921,3.285,1.362
				l1.849,0.733c0.693,0.271,1.378,0.525,2.065,0.781l9.818,3.315c1.458,0.446,2.922,0.867,4.394,1.272l1.598,0.437
				c0.722,0.191,1.447,0.373,2.169,0.552l1.963,0.481c0.78,0.184,1.572,0.365,2.362,0.539c0.596,0.134,1.194,0.26,1.794,0.386
				c0.797,0.166,1.596,0.334,2.395,0.492l2.387,0.441c0.008,0.003,0.015,0.006,0.022,0.006c-0.035-0.413-0.053-0.823-0.053-1.23
				c0-1.938,0.379-3.865,1.105-5.658c-1.425-0.261-2.835-0.576-4.252-0.876c-0.879-0.184-1.761-0.342-2.635-0.541
				c-2.587-0.587-5.152-1.226-7.675-1.931c-1.409-0.392-2.661-0.76-3.905-1.144l-0.456-0.139c-1.218-0.379-2.449-0.771-3.671-1.184
				c-5.158-1.74-10.164-3.71-15.032-5.905l-0.572-0.258c-1.064-0.489-2.104-0.978-3.139-1.478l-0.853-0.413
				c-0.001,0-0.002-0.002-0.002-0.002c-1.014-0.497-2.021-0.999-3.019-1.515l-0.75-0.392c-0.002-0.003-0.005-0.003-0.009-0.006
				h-0.001c-3.317-1.734-6.616-3.604-9.808-5.563c-0.002-0.003-0.005-0.003-0.008-0.003h0.002c-0.006-0.006-0.109-0.068-0.213-0.132
				l-0.002,0.003v-0.003c-0.079-0.047-0.161-0.097-0.163-0.097c-0.866-0.539-1.719-1.084-2.573-1.636l-1.214-0.786
				c-0.001,0-0.003,0-0.004-0.003c-0.779-0.507-1.558-1.033-2.333-1.564l-1.384-0.951c-0.738-0.513-1.472-1.033-2.203-1.557
				l-1.444-1.064c-0.702-0.516-1.415-1.042-2.114-1.575l-1.475-1.154c-1.159-0.91-2.305-1.827-3.441-2.766l-0.334-0.276
				c-0.474-0.392-0.948-0.783-1.412-1.178c-0.568-0.484-1.128-0.976-1.687-1.468c-0.574-0.496-1.151-1.004-1.724-1.517l-1.609-1.47
				c-0.586-0.542-1.167-1.089-1.743-1.636c-0.002,0-0.004,0-0.005-0.002c-0.003-0.019-0.001-0.003-0.003-0.003
				c-0.435-0.41-0.866-0.825-1.295-1.246c-0.068-0.063-0.138-0.132-0.206-0.197c-0.011-0.008-0.02-0.019-0.029-0.029
				c-0.231-0.224-0.464-0.457-0.696-0.688c-0.265-0.263-0.531-0.526-0.796-0.789l-0.332-0.334l-0.008-0.008l-1.306-1.314
				c-0.001,0-0.003-0.003-0.004-0.005h-0.001c-0.88-0.915-1.747-1.83-2.609-2.761c-0.002,0-0.003,0-0.004-0.003l-0.865-0.941
				c-0.002-0.002-0.004-0.002-0.007-0.005c-0.852-0.938-1.698-1.88-2.53-2.837c-0.002-0.003-0.004-0.006-0.006-0.006l-1.052-1.229
				c-0.636-0.75-1.263-1.491-1.885-2.243l-0.007-0.008l-1.096-1.356c-0.002,0-0.003,0-0.004-0.003
				c-0.302-0.374-0.594-0.749-0.888-1.122c-0.295-0.371-0.592-0.742-0.886-1.115l-0.01-0.011c0-0.003-0.001-0.003-0.001-0.003
				l-1.04-1.356c-0.616-0.81-1.224-1.635-1.828-2.458l-0.875-1.194c0-0.002-0.001-0.002-0.001-0.002
				c-0.88-1.226-1.742-2.461-2.587-3.713c-18.176-26.891-27.783-58.292-27.783-90.81v-30.614c-0.093,0.029-0.191,0.037-0.286,0.063
				c-0.372,0.105-0.748,0.189-1.128,0.258c-0.146,0.023-0.288,0.058-0.436,0.076c-0.546,0.076-1.097,0.126-1.657,0.126
				c-0.547,0-1.086-0.047-1.619-0.118c-0.134-0.021-0.264-0.05-0.397-0.074c-0.397-0.068-0.792-0.152-1.181-0.263
				c-0.086-0.024-0.175-0.032-0.261-0.058v30.604c0,39.467,13.921,77.93,39.197,108.302c0.896,1.078,1.806,2.138,2.727,3.187
				L753.659,501.517z"/>
		</g>
		<g>
			<path fill="#FFFFFF" d="M1118.176,355.89c0.428,0.26,0.896,0.428,1.355,0.612c2.27,0.905,4.841,0.952,7.079,0
				c3.426-1.464,5.642-4.814,5.642-8.54v-24.459c0-5.114-4.161-9.273-9.276-9.273c-5.116,0-9.278,4.159-9.278,9.273v24.459
				C1113.697,351.226,1115.372,354.189,1118.176,355.89z"/>
		</g>
		<g>
			<path fill="#FEE654" d="M1083.027,506.48l-1.046,1.128c-0.649,0.688-1.302,1.372-1.954,2.048l-1.049,1.081
				c-0.003,0.003-0.005,0.005-0.008,0.008c-0.749,0.763-1.513,1.524-2.287,2.282l-0.733,0.726c-0.505,0.486-1.021,0.962-1.533,1.443
				c-0.51,0.483-1.015,0.973-1.53,1.446c-0.001,0-0.003,0-0.004,0.002l-0.91,0.823c-0.742,0.676-1.489,1.347-2.245,2.009
				c0,0-0.001,0.005-0.004,0.005l-1.227,1.063c-0.001,0.003-0.001,0.006-0.001,0.006c-0.677,0.583-1.356,1.156-2.043,1.729h-0.001
				c-0.002,0-0.002,0.003-0.002,0.003l-1.295,1.072l-0.001,0.003h-0.001c-0.686,0.56-1.377,1.112-2.071,1.664
				c0,0-0.001,0-0.002,0.003l-0.059,0.045c-0.001,0.002-0.002,0.002-0.004,0.005l-1.206,0.954c-0.003,0-0.006,0.006-0.008,0.006
				c0,0,0,0.002-0.002,0.002c-1.07,0.828-2.146,1.648-3.237,2.456c0,0.003-0.002,0.003-0.002,0.003l-0.932,0.676
				c-0.834,0.615-1.688,1.228-2.548,1.832l-1.455,1.007l-2.054,1.396c0,0-0.003,0-0.004,0l-0.001,0.003l-0.235,0.154
				c-0.446,0.298-0.893,0.595-1.349,0.884l-0.002,0.003c-0.229,0.149-0.46,0.294-0.689,0.444c-0.374,0.241-0.746,0.48-1.124,0.723
				l-0.195,0.124c-0.001,0-0.002,0-0.004,0.002l-1.618,1.013c-0.531,0.328-1.07,0.652-1.609,0.976l-0.604,0.362
				c-0.002,0.003-0.007,0.003-0.009,0.003l-1.499,0.892c-1.118,0.657-2.257,1.299-3.398,1.927c-0.416,0.234-0.847,0.463-1.274,0.691
				l-8.229,4.176c-0.633,0.3-1.269,0.591-1.905,0.883l-1.982,0.904c-0.737,0.326-1.473,0.64-2.21,0.952
				c-1.15,0.489-2.303,0.968-3.468,1.436l-1.84,0.733c-0.659,0.255-1.317,0.5-1.979,0.744c-0.815,0.308-1.42,0.528-2.021,0.744
				l-8.008,2.655c-1.55,0.466-3.087,0.915-4.643,1.339l-1.502,0.415c-0.816,0.213-1.633,0.415-2.445,0.618l-1.75,0.426
				c-0.109,0.026-0.221,0.05-0.331,0.076c-0.624,0.147-1.254,0.292-1.883,0.434l-1.988,0.432c-0.838,0.176-1.658,0.344-2.489,0.505
				l-2.022,0.381c-0.465,0.084-0.926,0.171-1.39,0.252c-1.802,6.418-7.751,10.985-14.486,10.985H866.139
				c-6.735,0-12.687-4.569-14.486-10.987c-0.014-0.003-0.024-0.006-0.037-0.006c-0.057-0.01-0.106-0.021-0.162-0.031
				c-0.279-0.047-0.553-0.095-0.814-0.145l-2.424-0.452c-0.809-0.158-1.619-0.326-2.425-0.497c-0.609-0.126-1.221-0.258-1.828-0.392
				c-0.8-0.179-1.602-0.36-2.399-0.55l-1.8-0.438c-0.931-0.231-1.67-0.416-2.4-0.61l-1.621-0.441
				c-1.5-0.416-2.986-0.842-4.466-1.294l-9.883-3.336c-0.82-0.306-1.507-0.561-2.188-0.826l-1.875-0.744
				c-1.12-0.449-2.23-0.912-3.338-1.383c-0.769-0.326-1.543-0.654-2.311-0.994l-1.963-0.894c-0.644-0.297-1.291-0.594-1.931-0.899
				c-0.649-0.305-1.299-0.617-1.952-0.941c-0.636-0.308-1.271-0.625-1.912-0.946l-4.291-2.245c-0.446-0.239-0.894-0.476-1.339-0.726
				c-1.158-0.637-2.314-1.291-3.464-1.959l-1.72-1.03l-0.072-0.042c-0.625-0.374-1.248-0.747-1.867-1.131h-0.001
				c-0.142-0.087-0.281-0.179-0.424-0.266c-0.382-0.239-0.766-0.479-1.146-0.721c-0.007-0.002-0.014-0.008-0.021-0.013
				c-0.001,0-0.001,0-0.001,0c-0.685-0.432-1.37-0.865-2.047-1.307l-0.008-0.006l-1.563-1.033c-0.001,0-0.001,0-0.002,0l-2.07-1.403
				c-0.025-0.017-0.033-0.045-0.056-0.063l-0.08-0.053l-0.014,0.014l-1.293-0.899c-0.864-0.603-1.724-1.226-2.578-1.854
				c-0.001-0.003-0.003-0.003-0.003-0.003l-0.859-0.618c-1.105-0.82-2.202-1.653-3.29-2.5l-1.183-0.941h-0.001
				c-0.726-0.57-1.446-1.151-2.162-1.732l-0.013-0.011h-0.001l-1.275-1.057c-0.689-0.578-1.373-1.157-2.055-1.743
				c-0.001-0.003-0.002-0.003-0.004-0.003l-1.208-1.049c-0.001-0.003-0.004-0.003-0.005-0.003c-0.763-0.67-1.519-1.352-2.273-2.032
				h-0.001c0-0.003-0.001-0.003-0.003-0.003l-0.885-0.804c-0.001,0-0.002,0-0.004-0.003c-1.033-0.952-2.053-1.917-3.064-2.897
				c-0.001,0-0.001,0-0.001,0l-0.718-0.707c-0.781-0.76-1.547-1.525-2.309-2.301c-0.001-0.003-0.003-0.003-0.004-0.003
				c-0.35-0.353-0.695-0.712-1.037-1.072c0,0-0.001,0-0.003-0.003c-0.657-0.679-1.313-1.364-1.96-2.059l-1.044-1.117
				c-0.001-0.003-0.002-0.003-0.004-0.003c-0.668-0.729-1.325-1.462-1.979-2.198l-0.756-0.852l24.066,199.656h285.863
				l24.071-199.667l-0.767,0.865C1084.349,505.029,1083.692,505.755,1083.027,506.48z"/>
		</g>
		<g>
			<path fill="#231F20" d="M1086.883,469.303l19.917-165.24h18.788c12.355,0,22.406-10.051,22.406-22.406
				c0-11.916-9.357-21.659-21.105-22.34c4.75-5.797,7.342-12.996,7.342-20.576c0-17.95-14.61-32.555-32.568-32.555
				c-14.138,0-26.617,9.17-30.938,22.511c-7.177-4.012-15.446-5.535-23.742-4.191c-2.344-7.648-6.57-14.631-12.289-20.297
				l0.007-0.276c0-17.024-13.852-30.872-30.877-30.872c-4.596,0-9.147,1.033-13.276,3c-5.281-27.749-29.279-47.696-57.749-47.696
				c-32.431,0-58.813,26.384-58.813,58.813c0,0.955,0.03,1.948,0.093,3.013c-4.399-0.168-8.904,0.258-13.214,1.28
				c-7.332-6.973-16.901-10.803-27.029-10.803c-19.682,0-36.091,14.345-38.829,33.633c-4.626-1.425-9.423-2.146-14.283-2.146
				c-11.401,0-22.425,4.036-31.19,11.393c-6.163-6.636-14.778-10.417-23.85-10.417c-17.949,0-32.552,14.605-32.552,32.555
				c0,4.943,1.182,9.817,3.33,14.229c-9.795,2.393-17.094,11.221-17.094,21.743c0,12.355,10.049,22.406,22.401,22.406h18.796
				l19.92,165.251c-15.831-25.335-24.174-54.409-24.174-84.456v-31.861c3.569-2.169,5.771-5.989,5.771-10.201v-24.459
				c0-6.597-5.37-11.965-11.971-11.965c-6.6,0-11.969,5.369-11.969,11.965v24.459c0,4.233,2.221,8.064,5.818,10.228v31.834
				c0,39.959,14.054,78.897,39.564,109.704l24.695,204.873c0.081,0.676,0.655,1.186,1.337,1.186h288.25
				c0.681,0,1.256-0.51,1.337-1.186l24.7-204.881c25.509-30.804,39.559-69.742,39.559-109.696v-31.469
				c3.941-2.054,6.461-6.1,6.461-10.593v-24.459c0-6.597-5.369-11.965-11.969-11.965c-6.601,0-11.971,5.369-11.971,11.965v24.459
				c0,3.949,1.913,7.535,5.127,9.775v32.287C1111.049,414.894,1102.709,443.968,1086.883,469.303z M695.821,245.684
				c0-16.467,13.396-29.862,29.86-29.862c8.733,0,17.007,3.82,22.703,10.485c0.234,0.273,0.569,0.442,0.93,0.468
				c0.36,0.023,0.717-0.097,0.986-0.336c8.429-7.475,19.232-11.592,30.421-11.592c5.115,0,10.156,0.847,14.983,2.514
				c0.39,0.142,0.818,0.086,1.165-0.14c0.347-0.221,0.573-0.589,0.614-0.999c1.872-18.736,17.498-32.862,36.35-32.862
				c9.668,0,18.79,3.749,25.683,10.554c0.336,0.331,0.821,0.47,1.278,0.347c4.76-1.212,9.771-1.638,14.636-1.293
				c0.392,0.024,0.775-0.116,1.052-0.397c0.276-0.279,0.417-0.663,0.386-1.054c-0.116-1.436-0.191-2.879-0.191-4.338
				c0-30.946,25.177-56.12,56.121-56.12c27.758,0,51.062,19.871,55.409,47.247c0.068,0.434,0.344,0.807,0.738,0.999
				c0.395,0.197,0.858,0.187,1.242-0.031c4.154-2.301,8.868-3.518,13.636-3.518c15.541,0,28.185,12.641,28.185,28.18l-0.021,0.802
				c-0.007,0.373,0.142,0.733,0.41,0.994c5.885,5.689,10.151,12.841,12.336,20.679c0.188,0.673,0.865,1.088,1.554,0.959
				c8.606-1.677,17.256-0.021,24.529,4.512c0.361,0.224,0.81,0.263,1.207,0.108c0.396-0.158,0.695-0.494,0.806-0.907
				c3.468-13.072,15.325-22.201,28.834-22.201c16.474,0,29.876,13.396,29.876,29.862c0,7.685-2.895,14.944-8.165,20.511H701.766
				h-2.695C696.942,255.078,695.821,250.406,695.821,245.684z M701.766,301.37c-10.868,0-19.708-8.845-19.708-19.714
				s8.84-19.714,19.708-19.714h422.18h1.643c10.871,0,19.714,8.845,19.714,19.714s-8.843,19.714-19.714,19.714h-19.981H721.756
				H701.766z M723.273,304.063h380.814l-20.532,170.349c-0.776,1.141-1.564,2.274-2.361,3.386l-0.858,1.173
				c-0.595,0.812-1.196,1.625-1.809,2.429l-1.024,1.333c-0.578,0.741-1.158,1.478-1.799,2.269l-1.035,1.278c0,0,0,0.002-0.002,0.002
				l-0.003,0.003c-0.615,0.749-1.239,1.482-1.877,2.232l-1.015,1.188c-0.835,0.959-1.684,1.909-2.54,2.847
				c-0.001,0.003-0.001,0.003-0.002,0.003l-0.759,0.825c0,0-0.001,0.003-0.003,0.006c-0.862,0.936-1.742,1.855-2.635,2.776
				l-1.255,1.272c-0.616,0.618-1.231,1.23-1.853,1.84c-0.482,0.469-0.969,0.937-1.459,1.399c-0.002,0-0.002,0.002-0.003,0.005
				c-0.001,0-0.001,0-0.001,0l-6.623,5.969l-0.035,0.031c-0.002,0-0.002,0.003-0.002,0.003c-0.588,0.499-1.182,0.985-1.783,1.478
				c-1.07,0.886-2.15,1.756-3.239,2.61c-0.002,0-0.003,0.003-0.005,0.006l-1.541,1.201c-0.558,0.426-1.123,0.844-1.688,1.26
				l-0.097,0.07l-0.261,0.192h-0.001l-0.953,0.704l-0.504,0.371c-0.71,0.513-1.423,1.013-2.142,1.512l-1.396,0.968
				c-0.002,0-0.002,0-0.003,0.003c-0.749,0.507-1.504,1.012-2.257,1.509c-0.002,0.003-0.002,0.003-0.005,0.003l-1.68,1.086
				c-0.681,0.436-1.359,0.872-2.048,1.296c-0.002,0-0.003,0.003-0.004,0.005l-0.454,0.273c-3.084,1.894-6.296,3.715-9.546,5.414
				c-0.002,0-0.002,0.002-0.002,0.002l-0.786,0.408c-0.972,0.505-1.951,0.993-2.937,1.475l-0.873,0.426h-0.001
				c-1.009,0.484-2.023,0.968-3.044,1.434c-0.001,0-0.001,0.002-0.001,0.002l-0.612,0.269c-4.762,2.153-9.671,4.086-14.772,5.805
				c-1.189,0.405-2.396,0.786-3.6,1.16l0.398,1.285l-0.863-1.141c-1.214,0.37-2.426,0.729-3.85,1.128
				c-2.584,0.721-5.191,1.37-7.778,1.959c-0.899,0.202-1.773,0.352-2.666,0.541c-1.568,0.326-3.14,0.663-4.671,0.934
				c-2.762-4.277-7.52-6.899-12.638-6.899H861.056c-5.105,0-9.855,2.611-12.625,6.876c-1.612-0.284-3.221-0.615-4.829-0.952
				c-0.875-0.182-1.753-0.331-2.627-0.531c-2.623-0.591-5.24-1.246-7.854-1.977c-1.23-0.345-2.461-0.708-3.683-1.081h-0.001
				l-0.395,1.286l-0.034-1.42c-1.215-0.379-2.429-0.766-3.779-1.22c-4.924-1.662-9.847-3.6-14.625-5.753l-0.585-0.263
				c-1.032-0.474-2.055-0.957-3.075-1.446l-0.842-0.413c-0.001-0.003-0.004,0-0.005-0.003c-0.992-0.483-1.981-0.978-2.958-1.482
				c-0.001,0-0.001,0-0.003,0l-0.746-0.392c-3.263-1.706-6.51-3.547-9.646-5.472l-0.371-0.224c-0.853-0.528-1.693-1.067-2.531-1.608
				c-0.002,0-0.002,0-0.003-0.003c-0.003,0-0.004,0-0.007-0.003l-0.003-0.002l-1.092-0.705l-0.097-0.063
				c-0.768-0.502-1.529-1.015-2.29-1.535c-0.001,0-0.002,0-0.004-0.003l-1.363-0.938c-0.728-0.507-1.451-1.018-2.171-1.535
				c-0.002,0-0.004,0-0.006-0.003l-1.399-1.036c-0.003-0.002-0.007-0.002-0.01-0.002l-0.001-0.003
				c-0.697-0.51-1.394-1.025-2.077-1.549c0,0-0.001,0-0.003,0l-1.446-1.133c-0.001-0.003-0.002-0.003-0.004-0.003
				c-1.141-0.894-2.268-1.798-3.384-2.721l-0.287-0.237l-0.051-0.042c-0.27-0.224-0.534-0.444-0.803-0.67
				c-0.192-0.158-0.385-0.318-0.574-0.479c-0.002,0-0.003,0-0.004-0.003c-0.555-0.471-1.104-0.952-1.659-1.443
				c-0.572-0.491-1.136-0.988-1.694-1.491l-1.583-1.448c-0.002,0-0.003,0-0.004-0.003c-0.577-0.528-1.15-1.067-1.719-1.608
				c-0.494-0.469-0.988-0.941-1.472-1.415c-0.008-0.011-0.004-0.005-0.006-0.005c-0.587-0.573-1.167-1.154-1.744-1.732l-1.367-1.378
				c-0.87-0.899-1.727-1.807-2.582-2.727l-0.848-0.926c-0.842-0.923-1.672-1.848-2.491-2.79l-1.047-1.225h-0.001
				c-0.62-0.731-1.237-1.457-1.847-2.195l-0.879-1.088c-0.078-0.161-0.195-0.292-0.329-0.41c-0.552-0.684-1.092-1.37-1.623-2.046
				l-1.037-1.351c-0.608-0.799-1.205-1.609-1.8-2.422l-0.859-1.175c-0.805-1.118-1.59-2.248-2.363-3.389L723.273,304.063z
				 M978.655,550.485c0,0.854-0.094,1.727-0.278,2.6c0,0-0.002,0-0.002,0.003c-1.211,5.647-6.287,9.749-12.072,9.749H861.056
				c-5.781,0-10.858-4.099-12.073-9.746c-0.187-0.884-0.281-1.757-0.281-2.605c0-2.102,0.542-4.181,1.565-6.019
				c2.193-3.912,6.327-6.345,10.789-6.345h105.247c4.465,0,8.596,2.433,10.783,6.345c0,0,0.002,0,0.002,0.003
				C978.113,546.302,978.655,548.379,978.655,550.485z M700.832,342.796v-24.459c0-5.114,4.161-9.273,9.276-9.273
				c5.116,0,9.278,4.159,9.278,9.273v24.459c0,3.486-1.933,6.646-5.042,8.25c-2.629,1.352-5.776,1.37-8.429,0.019
				C702.78,349.469,700.832,346.301,700.832,342.796z M706.65,384.858v-30.604c0.086,0.026,0.175,0.034,0.261,0.058
				c0.389,0.11,0.783,0.194,1.181,0.263c0.134,0.024,0.264,0.053,0.397,0.074c0.533,0.071,1.072,0.118,1.619,0.118
				c0.561,0,1.111-0.05,1.657-0.126c0.147-0.019,0.289-0.053,0.436-0.076c0.38-0.068,0.756-0.153,1.128-0.258
				c0.095-0.026,0.193-0.034,0.286-0.063v30.614c0,32.518,9.607,63.919,27.783,90.81c0.845,1.252,1.707,2.487,2.587,3.713
				c0,0,0.001,0,0.001,0.002l0.875,1.194c0.604,0.823,1.212,1.648,1.828,2.458l1.04,1.357c0,0,0.001,0,0.001,0.002l0.01,0.011
				c0.294,0.373,0.591,0.744,0.886,1.115c0.294,0.373,0.586,0.749,0.888,1.123c0.001,0.002,0.002,0.002,0.004,0.002l1.096,1.357
				l0.007,0.008c0.622,0.752,1.249,1.493,1.885,2.243l1.052,1.23c0.002,0,0.004,0.003,0.006,0.006
				c0.832,0.957,1.679,1.898,2.53,2.837c0.003,0.003,0.005,0.003,0.007,0.005l0.865,0.941c0.001,0.003,0.002,0.003,0.004,0.003
				c0.862,0.931,1.729,1.846,2.609,2.761h0.001c0.001,0.002,0.003,0.005,0.004,0.005l1.306,1.314l0.008,0.008l0.332,0.334
				c0.265,0.263,0.531,0.526,0.796,0.789c0.232,0.231,0.465,0.465,0.696,0.688c0.01,0.011,0.019,0.021,0.029,0.029
				c0.068,0.065,0.138,0.134,0.206,0.197c0.429,0.421,0.86,0.836,1.295,1.246c0.002,0,0-0.016,0.003,0.003
				c0.001,0.002,0.003,0.002,0.005,0.002c0.576,0.547,1.157,1.094,1.743,1.636l1.609,1.47c0.572,0.513,1.149,1.021,1.724,1.517
				c0.559,0.492,1.118,0.983,1.687,1.468c0.464,0.395,0.938,0.786,1.412,1.178l0.334,0.276c1.137,0.938,2.282,1.855,3.441,2.766
				l1.475,1.154c0.699,0.533,1.412,1.06,2.114,1.575l1.444,1.064c0.731,0.523,1.465,1.044,2.203,1.557l1.384,0.951
				c0.775,0.531,1.554,1.058,2.333,1.564c0.001,0.003,0.003,0.003,0.004,0.003l1.214,0.786c0.854,0.552,1.707,1.097,2.573,1.636
				c0.002,0,0.084,0.05,0.163,0.097v0.003l0.002-0.003c0.104,0.063,0.207,0.126,0.213,0.132h-0.002c0.003,0,0.006,0,0.008,0.003
				c3.191,1.958,6.49,3.828,9.808,5.563h0.001c0.004,0.003,0.007,0.003,0.009,0.006l0.75,0.392c0.998,0.516,2.005,1.018,3.019,1.515
				c0,0,0.001,0.002,0.002,0.002l0.853,0.413c1.035,0.5,2.074,0.988,3.139,1.478l0.572,0.258c4.868,2.195,9.874,4.165,15.032,5.905
				c1.222,0.413,2.453,0.805,3.671,1.184l0.456,0.139c1.244,0.384,2.496,0.752,3.905,1.144c2.522,0.705,5.088,1.344,7.675,1.931
				c0.874,0.199,1.756,0.357,2.635,0.541c1.417,0.3,2.827,0.615,4.252,0.876c-0.727,1.793-1.105,3.72-1.105,5.658
				c0,0.407,0.018,0.817,0.053,1.23c-0.008,0-0.015-0.003-0.022-0.006l-2.387-0.441c-0.799-0.158-1.598-0.326-2.395-0.492
				c-0.6-0.126-1.198-0.252-1.794-0.386c-0.79-0.174-1.582-0.355-2.362-0.539l-1.963-0.481c-0.722-0.179-1.447-0.36-2.169-0.552
				l-1.598-0.437c-1.472-0.405-2.936-0.826-4.394-1.272l-9.818-3.315c-0.688-0.256-1.372-0.511-2.065-0.781l-1.849-0.733
				c-1.099-0.441-2.191-0.895-3.285-1.362c-0.758-0.318-1.52-0.642-2.269-0.976l-1.936-0.881c-0.629-0.289-1.266-0.581-1.9-0.883
				c-0.642-0.303-1.275-0.61-1.92-0.929c-0.633-0.308-1.259-0.62-1.885-0.933l-4.235-2.217c-0.432-0.229-0.864-0.46-1.301-0.704
				c-1.148-0.632-2.286-1.275-3.407-1.925l-1.771-1.063c-0.615-0.365-1.229-0.733-1.847-1.117c-0.513-0.313-1.028-0.642-1.564-0.983
				c-0.671-0.421-1.343-0.847-2.007-1.278l-5.003-3.386l-0.003-0.003l-0.004-0.003c-0.858-0.602-1.709-1.214-2.564-1.848
				l-0.194-0.14c-0.003,0-0.006-0.005-0.01-0.008l-0.612-0.439c-0.001,0-0.003,0-0.004,0c-1.09-0.81-2.169-1.633-3.242-2.463
				l-1.167-0.931c-0.715-0.565-1.425-1.137-2.12-1.701l-1.275-1.058c-0.002,0-0.004,0-0.007-0.002
				c-0.676-0.568-1.346-1.136-2.016-1.712l-1.194-1.036c-0.752-0.66-1.499-1.33-2.24-2.003l-0.878-0.797
				c-1.021-0.938-2.027-1.891-3.029-2.86l-0.702-0.691c-0.768-0.747-1.523-1.504-2.278-2.272c-0.34-0.342-0.674-0.688-1.016-1.049
				c-0.647-0.668-1.29-1.338-1.926-2.021c-0.002,0-0.002,0-0.003-0.003l-1.032-1.106c-0.657-0.713-1.304-1.436-1.948-2.161
				c-0.001,0-0.002,0-0.004-0.003l-0.87-0.983h-0.001l-0.002-0.003c-0.921-1.049-1.831-2.108-2.727-3.187
				C720.571,462.788,706.65,424.325,706.65,384.858z M1056.611,697.928H770.748l-24.066-199.656l0.756,0.852
				c0.654,0.736,1.312,1.47,1.979,2.198c0.002,0,0.003,0,0.004,0.003l1.044,1.117c0.646,0.694,1.303,1.38,1.96,2.059
				c0.002,0.003,0.003,0.003,0.003,0.003c0.342,0.36,0.688,0.72,1.037,1.072c0.001,0,0.003,0,0.004,0.003
				c0.762,0.775,1.527,1.541,2.309,2.301l0.718,0.707c0,0,0,0,0.001,0c1.012,0.98,2.031,1.945,3.064,2.897
				c0.002,0.003,0.003,0.003,0.004,0.003l0.885,0.804c0.002,0,0.003,0,0.003,0.003h0.001c0.755,0.681,1.511,1.362,2.273,2.032
				c0.001,0,0.004,0,0.005,0.003l1.208,1.049c0.002,0,0.003,0,0.004,0.003c0.682,0.586,1.365,1.165,2.055,1.743l1.275,1.057h0.001
				l0.013,0.011c0.716,0.581,1.437,1.162,2.162,1.732h0.001l1.183,0.941c1.088,0.847,2.185,1.68,3.29,2.5l0.858,0.618
				c0.001,0,0.003,0,0.004,0.003c0.854,0.628,1.714,1.251,2.578,1.854l1.293,0.899l0.014-0.014l0.08,0.053
				c0.022,0.019,0.03,0.047,0.056,0.063l2.07,1.403c0.001,0,0.001,0,0.002,0l1.563,1.033l0.008,0.006
				c0.677,0.441,1.362,0.875,2.047,1.307c0,0,0,0,0.001,0c0.007,0.005,0.014,0.011,0.021,0.013c0.38,0.242,0.764,0.481,1.146,0.721
				c0.143,0.087,0.282,0.179,0.424,0.266h0.001c0.619,0.384,1.242,0.757,1.867,1.131l0.072,0.042l1.72,1.03
				c1.149,0.668,2.306,1.322,3.464,1.959c0.445,0.25,0.893,0.486,1.339,0.726l4.291,2.245c0.641,0.321,1.276,0.639,1.912,0.946
				c0.653,0.324,1.303,0.637,1.952,0.941c0.64,0.306,1.287,0.603,1.931,0.899l1.963,0.894c0.768,0.34,1.542,0.668,2.311,0.994
				c1.107,0.471,2.218,0.934,3.338,1.383l1.875,0.744c0.681,0.266,1.367,0.521,2.188,0.826l9.883,3.336
				c1.479,0.452,2.966,0.878,4.466,1.294l1.621,0.441c0.73,0.194,1.47,0.379,2.4,0.61l1.8,0.438c0.798,0.189,1.6,0.371,2.399,0.55
				c0.607,0.134,1.219,0.266,1.828,0.392c0.806,0.171,1.616,0.339,2.425,0.497l2.424,0.452c0.262,0.05,0.535,0.098,0.814,0.145
				c0.056,0.011,0.105,0.021,0.162,0.031c0.013,0,0.023,0.003,0.037,0.006c1.8,6.418,7.751,10.987,14.486,10.987h105.247
				c6.735,0,12.685-4.567,14.486-10.985c0.464-0.081,0.925-0.168,1.39-0.252l2.022-0.381c0.831-0.161,1.651-0.329,2.489-0.505
				l1.988-0.432c0.629-0.142,1.259-0.286,1.883-0.434c0.11-0.026,0.222-0.05,0.331-0.076l1.75-0.426
				c0.813-0.203,1.629-0.405,2.445-0.618l1.502-0.415c1.556-0.424,3.093-0.873,4.643-1.339l8.008-2.655
				c0.602-0.216,1.206-0.437,2.021-0.744c0.661-0.244,1.319-0.489,1.979-0.744l1.84-0.733c1.165-0.468,2.317-0.946,3.468-1.436
				c0.737-0.313,1.473-0.626,2.21-0.952l1.982-0.904c0.637-0.292,1.272-0.583,1.905-0.883l8.229-4.176
				c0.428-0.229,0.858-0.457,1.274-0.691c1.142-0.628,2.28-1.27,3.398-1.927l1.499-0.892c0.002,0,0.007,0,0.009-0.003l0.604-0.362
				c0.539-0.323,1.078-0.647,1.609-0.976l1.618-1.013c0.002-0.002,0.003-0.002,0.003-0.002l0.196-0.124
				c0.378-0.242,0.75-0.481,1.124-0.723c0.229-0.15,0.461-0.295,0.689-0.444l0.002-0.003c0.456-0.289,0.902-0.586,1.349-0.884
				l0.235-0.154l0.001-0.003c0,0,0.003,0,0.004,0l2.054-1.396l1.455-1.007c0.859-0.604,1.714-1.217,2.548-1.832l0.932-0.676
				c0,0,0.002,0,0.002-0.003c1.091-0.808,2.167-1.628,3.237-2.456c0.002,0,0.002-0.002,0.002-0.002c0.002,0,0.005-0.006,0.008-0.006
				l1.206-0.954c0.002-0.003,0.003-0.003,0.004-0.005l0.059-0.045c0.001-0.003,0.002-0.003,0.002-0.003
				c0.694-0.552,1.386-1.104,2.071-1.664c0,0,0,0,0.001,0l0.001-0.003l1.295-1.072c0,0,0-0.003,0.002-0.003h0.001
				c0.687-0.573,1.366-1.146,2.042-1.729c0.001,0,0.001-0.003,0.002-0.006l1.227-1.063c0.003,0,0.003-0.005,0.004-0.005
				c0.756-0.662,1.503-1.333,2.245-2.009l0.91-0.823c0.001-0.002,0.003-0.002,0.003-0.002c0.517-0.474,1.021-0.963,1.531-1.446
				c0.512-0.481,1.028-0.957,1.533-1.443l0.733-0.726c0.774-0.758,1.538-1.52,2.287-2.282c0.003-0.003,0.005-0.005,0.008-0.008
				l1.049-1.081c0.652-0.676,1.305-1.359,1.954-2.048l1.046-1.128c0.665-0.726,1.321-1.451,1.972-2.188l0.767-0.865
				L1056.611,697.928z M1108.614,342.796v-24.459c0-5.114,4.162-9.273,9.278-9.273c5.115,0,9.276,4.159,9.276,9.273v24.459
				c0,3.726-2.216,7.075-5.642,8.54c-2.238,0.952-4.81,0.905-7.079,0c-0.46-0.184-0.928-0.352-1.355-0.612
				C1110.289,349.022,1108.614,346.059,1108.614,342.796z M1113.741,384.858v-30.84c0.137,0.052,0.282,0.076,0.422,0.121
				c0.314,0.105,0.63,0.2,0.952,0.276c0.226,0.055,0.452,0.103,0.681,0.142c0.341,0.06,0.683,0.105,1.026,0.137
				c0.227,0.021,0.45,0.039,0.676,0.044c0.132,0.005,0.262,0.029,0.395,0.029c0.13,0,0.254-0.034,0.384-0.039
				c0.546-0.016,1.083-0.068,1.62-0.161c0.188-0.034,0.378-0.053,0.564-0.092c0.082-0.021,0.166-0.021,0.248-0.042v30.425
				c0,39.464-13.92,77.924-39.188,108.294c-0.902,1.073-1.814,2.138-2.736,3.192l-0.887,0.999c-0.002,0.002-0.002,0.002-0.002,0.002
				c-0.639,0.721-1.28,1.436-1.934,2.144c-0.003,0.002-0.003,0.005-0.005,0.008l-1.031,1.109c0,0-0.001,0.002-0.002,0.005
				c-0.635,0.676-1.274,1.347-1.92,2.012l-1.027,1.06c-0.747,0.76-1.498,1.509-2.259,2.253c-0.001,0.003-0.004,0.003-0.005,0.005
				l-0.718,0.71c-0.002,0.003-0.002,0.003-0.003,0.003c-0.994,0.96-2,1.909-3.012,2.84c0,0-0.002,0-0.002,0.002l-0.895,0.808
				c-0.002,0-0.002,0.005-0.004,0.005c-0.733,0.668-1.472,1.333-2.222,1.988l-1.206,1.046c-0.665,0.573-1.331,1.142-2.005,1.701
				l-1.284,1.065c-0.665,0.544-1.337,1.08-2.075,1.667l-0.026,0.021c0,0,0,0-0.002,0l-1.192,0.944
				c-1.057,0.82-2.121,1.633-3.207,2.437l-0.888,0.645l-0.011,0.008c-0.828,0.607-1.667,1.21-2.511,1.804l-5.028,3.399
				c-0.59,0.387-1.186,0.766-1.78,1.144l-0.16,0.103c-0.012,0.008-0.021,0.014-0.032,0.021l-1.595,0.996
				c-0.002,0-0.002,0-0.003,0.003c-0.521,0.323-1.049,0.639-1.575,0.954l-2.085,1.241c-1.104,0.649-2.222,1.28-3.35,1.901
				c-0.407,0.229-0.821,0.449-1.234,0.667l-8.119,4.12c-0.62,0.295-1.246,0.584-1.873,0.87l-1.953,0.889
				c-0.721,0.321-1.442,0.629-2.168,0.937c-1.136,0.483-2.271,0.951-3.417,1.414l-1.813,0.724c-0.645,0.249-1.29,0.486-2.176,0.814
				c-0.581,0.221-1.172,0.437-1.758,0.647l-7.891,2.615c-1.513,0.455-3.026,0.897-4.559,1.315l-1.481,0.41
				c-0.8,0.207-1.603,0.41-2.402,0.607l-1.727,0.42c-0.727,0.174-1.457,0.337-2.396,0.55l-1.758,0.379
				c-0.805,0.168-1.609,0.336-2.428,0.494l-1.994,0.373c-0.133,0.023-0.268,0.048-0.4,0.071c0.034-0.41,0.052-0.82,0.052-1.228
				c0-1.943-0.379-3.868-1.105-5.656c1.448-0.263,2.911-0.594,4.371-0.898c0.826-0.177,1.649-0.324,2.48-0.513
				c2.609-0.592,5.233-1.247,7.884-1.985c1.249-0.35,2.481-0.713,3.714-1.089c0.001-0.002,0.475-0.149,0.476-0.149
				c1.227-0.379,2.454-0.771,3.849-1.241c5.001-1.686,9.993-3.652,14.813-5.831l0.645-0.284c1.039-0.477,2.07-0.965,3.097-1.459
				l0.889-0.432h0.001c1.002-0.494,2-0.991,2.988-1.501c0.002-0.003,0.003-0.003,0.003-0.003l0.793-0.413
				c2.342-1.225,4.643-2.526,6.906-3.854c0.938-0.549,1.886-1.091,2.803-1.653c0,0,0,0,0.002,0l0.461-0.278
				c0.702-0.435,1.393-0.879,2.085-1.32l0.45-0.289c0,0,0.002-0.003,0.004-0.006c0,0,0.002,0,0.004,0l0.665-0.431l0.59-0.381
				c0.77-0.508,1.537-1.021,2.305-1.544l1.411-0.978c0.731-0.508,1.457-1.018,2.186-1.544l1.475-1.086h0.002l0.083-0.063l0.273-0.2
				c0.444-0.331,0.89-0.662,1.333-0.994c0.127-0.097,0.258-0.188,0.384-0.286l0.001-0.003h0.001l1.575-1.23
				c1.108-0.87,2.206-1.756,3.292-2.652c0.001-0.003,0.003-0.003,0.004-0.006c0.608-0.497,1.213-0.993,1.813-1.501l1.648-1.433
				c0.003-0.003,0.006-0.003,0.008-0.006l1.753-1.551l1.583-1.438c0.002-0.003,0.002-0.005,0.005-0.008s0.007-0.003,0.009-0.005
				l1.726-1.625l0.036-0.034c0.499-0.474,0.995-0.946,1.485-1.425c0.002,0,0.002,0,0.003-0.003c0.633-0.618,1.257-1.244,1.88-1.867
				c0.002-0.002,0.004-0.002,0.006-0.005l1.288-1.307c0,0,0,0,0.001,0c0.902-0.931,1.796-1.869,2.678-2.824l0.764-0.833
				c0.869-0.954,1.734-1.919,2.582-2.895c0,0,0,0,0.002,0l1.043-1.223c0.637-0.747,1.269-1.496,1.891-2.251
				c0.36-0.434,0.711-0.87,1.105-1.362c0.601-0.747,1.192-1.493,1.781-2.248c0.002-0.002,0.003-0.005,0.004-0.005l1.039-1.354
				c0.623-0.82,1.235-1.643,1.84-2.471c0.002-0.003,0-0.003,0.002-0.003l0.001-0.002l0.858-1.172v-0.003l0.006-0.005
				c0.878-1.225,1.744-2.461,2.589-3.712C1104.137,448.766,1113.741,417.368,1113.741,384.858z"/>
		</g>
		<g>
			<path fill="#231F20" d="M934.461,212.818c15.533,0,28.169-12.639,28.169-28.172s-12.636-28.169-28.169-28.169
				s-28.172,12.636-28.172,28.169S918.928,212.818,934.461,212.818z M934.461,159.169c14.048,0,25.477,11.429,25.477,25.477
				c0,14.051-11.429,25.479-25.477,25.479c-14.049,0-25.479-11.429-25.479-25.479C908.981,170.599,920.412,159.169,934.461,159.169z
				"/>
		</g>
		<g>
			<path fill="#231F20" d="M833.814,239.221c7.019,0,12.729-5.711,12.729-12.728c0-7.02-5.71-12.731-12.729-12.731
				s-12.728,5.711-12.728,12.731C821.087,233.51,826.796,239.221,833.814,239.221z M833.814,216.455
				c5.533,0,10.036,4.504,10.036,10.039c0,5.534-4.503,10.036-10.036,10.036s-10.035-4.501-10.035-10.036
				C823.779,220.958,828.281,216.455,833.814,216.455z"/>
		</g>
		<g>
			<path fill="#231F20" d="M1000.585,240.002c7.45,0,13.512-6.061,13.512-13.509c0-7.449-6.062-13.509-13.512-13.509
				c-7.449,0-13.511,6.06-13.511,13.509C987.074,233.941,993.136,240.002,1000.585,240.002z M1000.585,215.676
				c5.966,0,10.819,4.854,10.819,10.817c0,5.963-4.854,10.816-10.819,10.816c-5.965,0-10.818-4.854-10.818-10.816
				C989.767,220.53,994.62,215.676,1000.585,215.676z"/>
		</g>
	</g>
	<g>
		<g>
			<path fill="#FFFFFF" d="M1212.486,770.87l12.765-7.495c0.21-0.124,0.445-0.185,0.681-0.185s0.471,0.061,0.682,0.185l12.767,7.495
				v-87.907h-26.894V770.87z"/>
		</g>
		<g>
			<path fill="#FFFFFF" d="M1242.072,770.87l12.768-7.495c0.211-0.124,0.445-0.185,0.682-0.185c0.234,0,0.47,0.061,0.681,0.185
				l12.768,7.495v-87.907h-26.897V770.87z"/>
		</g>
		<g>
			<path fill="#FFFFFF" d="M1064.541,770.87l12.768-7.495c0.21-0.124,0.445-0.185,0.681-0.185s0.471,0.061,0.681,0.185l12.768,7.495
				v-87.907h-26.896V770.87z"/>
		</g>
		<g>
			<path fill="#FFFFFF" d="M1153.308,770.87l12.768-7.495c0.21-0.124,0.446-0.185,0.681-0.185c0.235,0,0.471,0.061,0.682,0.185
				l12.768,7.495v-87.907h-26.897V770.87z"/>
		</g>
		<g>
			<path fill="#FFFFFF" d="M1123.719,770.87l12.768-7.495c0.21-0.124,0.445-0.185,0.681-0.185s0.471,0.061,0.681,0.185l12.768,7.495
				v-87.907h-26.896V770.87z"/>
		</g>
		<g>
			<path fill="#FFFFFF" d="M1094.13,770.87l12.768-7.495c0.21-0.124,0.445-0.185,0.681-0.185s0.471,0.061,0.681,0.185l12.768,7.495
				v-87.907h-26.896V770.87z"/>
		</g>
		<g>
			<path fill="#FFFFFF" d="M1005.365,770.87l12.765-7.495c0.21-0.124,0.445-0.185,0.681-0.185s0.471,0.061,0.682,0.185l12.767,7.495
				v-87.907h-26.894V770.87z"/>
		</g>
		<g>
			<path fill="#F1604D" d="M1219.46,638.603h25.908v-21.81c0-34.177-27.804-61.98-61.981-61.98h-151.171
				c-7.144,0-12.954,5.811-12.954,12.954s5.811,12.954,12.954,12.954h151.171c19.891,0,36.073,16.183,36.073,36.072V638.603z"/>
		</g>
		<g>
			<path fill="#FFFFFF" d="M1034.951,770.87l12.768-7.495c0.211-0.124,0.446-0.185,0.682-0.185c0.234,0,0.471,0.061,0.681,0.185
				l12.768,7.495v-87.907h-26.897V770.87z"/>
		</g>
		<g>
			<path fill="#FFFFFF" d="M1182.896,770.87l12.766-7.495c0.21-0.124,0.445-0.185,0.681-0.185s0.471,0.061,0.681,0.185l12.771,7.495
				v-87.907h-26.897V770.87z"/>
		</g>
		<g>
			<path fill="#F1604D" d="M1273.271,641.295h-26.558h-28.601h-209.048c-12.024,0-21.807,9.783-21.807,21.807
				s9.782,21.807,21.807,21.807h28.54h29.589h29.589h29.59h29.589h29.589h29.589h29.587h28.545c12.025,0,21.807-9.783,21.807-21.807
				S1285.297,641.295,1273.271,641.295z"/>
		</g>
		<g>
			<path fill="#231F20" d="M1269.271,633.965h-25.211v-21.81c0-35.659-29.013-64.673-64.674-64.673h-151.171
				c-8.628,0-15.646,7.021-15.646,15.646s7.019,15.646,15.646,15.646h151.171c18.406,0,33.381,14.974,33.381,33.38v21.81h-207.702
				c-13.509,0-24.499,10.99-24.499,24.499c0,12.702,9.718,23.171,22.106,24.378v90.379c0,0.484,0.259,0.929,0.677,1.168
				c0.208,0.118,0.438,0.179,0.669,0.179c0.235,0,0.471-0.063,0.682-0.185l14.11-8.284l14.114,8.284c0.002,0,0.006,0,0.009,0.003
				c0.001,0,0.001,0.003,0.003,0.003c0.051,0.031,0.112,0.021,0.167,0.044c0.165,0.068,0.331,0.135,0.506,0.135
				c0.114,0,0.22-0.061,0.33-0.09c0.113-0.031,0.231-0.028,0.335-0.089c0.001,0,0.001-0.003,0.003-0.003
				c0.002-0.003,0.006-0.003,0.009-0.003l14.114-8.284l14.113,8.284c0.002,0,0.007,0,0.009,0.003c0.002,0,0.002,0.003,0.003,0.003
				c0.106,0.063,0.228,0.061,0.343,0.089c0.11,0.029,0.213,0.09,0.326,0.09c0.001,0,0.003,0,0.003,0c0.115,0,0.22-0.061,0.331-0.09
				c0.113-0.031,0.231-0.031,0.335-0.089c0.002,0,0.002-0.003,0.002-0.003c0.004-0.003,0.008-0.003,0.01-0.003l14.114-8.284
				l14.113,8.284c0.003,0,0.007,0,0.009,0.003c0.002,0,0.002,0.003,0.002,0.003c0.107,0.063,0.229,0.061,0.344,0.089
				c0.111,0.029,0.214,0.09,0.326,0.09c0.002,0,0.003,0,0.004,0c0.115,0,0.219-0.061,0.33-0.09c0.113-0.031,0.231-0.031,0.336-0.089
				c0,0,0.001-0.003,0.002-0.003c0.003-0.003,0.007-0.003,0.01-0.003l14.113-8.284l14.113,8.284c0.003,0,0.007,0,0.01,0.003
				c0,0,0.001,0.003,0.002,0.003c0.107,0.063,0.228,0.061,0.344,0.089c0.11,0.029,0.213,0.09,0.326,0.09c0,0,0.002,0,0.004,0
				c0.114,0,0.218-0.061,0.33-0.09c0.112-0.031,0.23-0.031,0.335-0.089c0.001,0,0.001-0.003,0.003-0.003
				c0.002-0.003,0.006-0.003,0.009-0.003l14.113-8.284l14.114,8.284c0.002,0,0.006,0,0.009,0.003c0.001,0,0.001,0.003,0.003,0.003
				c0.106,0.063,0.227,0.061,0.343,0.089c0.11,0.029,0.213,0.09,0.326,0.09c0.001,0,0.003,0,0.003,0c0.115,0,0.219-0.061,0.331-0.09
				c0.112-0.031,0.231-0.031,0.335-0.089c0,0,0.001-0.003,0.003-0.003c0.002-0.003,0.007-0.003,0.009-0.003l14.113-8.284
				l14.114,8.284c0.003,0,0.007,0,0.009,0.003c0.002,0,0.002,0.003,0.002,0.003c0.209,0.118,0.438,0.179,0.67,0.179
				s0.462-0.061,0.669-0.179c0.002,0,0.002-0.003,0.003-0.003c0.003-0.003,0.007-0.003,0.009-0.003l14.111-8.284l14.116,8.284
				c0.003,0,0.007,0,0.009,0.003c0.002,0,0.002,0.003,0.003,0.003c0.068,0.039,0.148,0.031,0.223,0.058
				c0.146,0.055,0.291,0.121,0.446,0.121h0.002c0.229,0,0.461-0.059,0.667-0.179c0.002,0,0.002-0.003,0.002-0.003
				c0.004-0.003,0.008-0.003,0.011-0.003l14.11-8.284l14.113,8.284c0.003,0,0.007,0,0.01,0.003c0,0,0.001,0.003,0.003,0.003
				c0.051,0.031,0.112,0.021,0.167,0.044c0.165,0.068,0.331,0.135,0.506,0.135c0.114,0,0.22-0.061,0.33-0.09
				c0.113-0.031,0.231-0.028,0.335-0.089c0,0,0.001-0.003,0.003-0.003c0.002-0.003,0.006-0.003,0.009-0.003l14.114-8.284
				l14.113,8.284c0.21,0.124,0.445,0.185,0.681,0.185c0.231,0,0.462-0.061,0.669-0.179c0.42-0.239,0.678-0.684,0.678-1.168v-90.379
				c12.391-1.207,22.108-11.676,22.108-24.378C1293.771,644.955,1282.78,633.965,1269.271,633.965z M1179.387,576.083h-151.171
				c-7.144,0-12.954-5.811-12.954-12.954s5.811-12.954,12.954-12.954h151.171c34.178,0,61.981,27.804,61.981,61.98v21.81h-25.908
				v-21.81C1215.46,592.266,1199.277,576.083,1179.387,576.083z M1032.259,770.87l-12.767-7.495
				c-0.211-0.124-0.446-0.185-0.682-0.185s-0.471,0.061-0.681,0.185l-12.765,7.495v-87.907h26.894V770.87z M1061.849,770.87
				l-12.768-7.495c-0.21-0.124-0.446-0.185-0.681-0.185c-0.235,0-0.471,0.061-0.682,0.185l-12.768,7.495v-87.907h26.897V770.87z
				 M1091.438,770.87l-12.768-7.495c-0.21-0.124-0.445-0.185-0.681-0.185s-0.471,0.061-0.681,0.185l-12.768,7.495v-87.907h26.896
				V770.87z M1121.026,770.87l-12.768-7.495c-0.21-0.124-0.445-0.185-0.681-0.185s-0.471,0.061-0.681,0.185l-12.768,7.495v-87.907
				h26.896V770.87z M1150.615,770.87l-12.768-7.495c-0.21-0.124-0.445-0.185-0.681-0.185s-0.471,0.061-0.681,0.185l-12.768,7.495
				v-87.907h26.896V770.87z M1180.205,770.87l-12.768-7.495c-0.211-0.124-0.446-0.185-0.682-0.185c-0.234,0-0.471,0.061-0.681,0.185
				l-12.768,7.495v-87.907h26.897V770.87z M1209.794,770.87l-12.771-7.495c-0.21-0.124-0.445-0.185-0.681-0.185
				s-0.471,0.061-0.681,0.185l-12.766,7.495v-87.907h26.897V770.87z M1239.38,770.87l-12.767-7.495
				c-0.211-0.124-0.446-0.185-0.682-0.185s-0.471,0.061-0.681,0.185l-12.765,7.495v-87.907h26.894V770.87z M1268.97,770.87
				l-12.768-7.495c-0.211-0.124-0.446-0.185-0.681-0.185c-0.236,0-0.471,0.061-0.682,0.185l-12.768,7.495v-87.907h26.897V770.87z
				 M1269.271,680.271h-28.545h-29.587h-29.589h-29.589h-29.589h-29.59h-29.589h-29.589h-28.54
				c-12.024,0-21.807-9.783-21.807-21.807s9.782-21.807,21.807-21.807h209.048h28.601h26.558c12.025,0,21.807,9.783,21.807,21.807
				S1281.297,680.271,1269.271,680.271z"/>
		</g>
	</g>
	<g>
		<g>
			<path fill="#59A6BC" d="M739.97,752.066c5.173,0,9.381-4.209,9.381-9.381c0-5.174-4.208-9.384-9.381-9.384
				s-9.381,4.21-9.381,9.384C730.589,747.857,734.797,752.066,739.97,752.066z"/>
		</g>
		<g>
			<polygon fill="#F1604D" points="743.23,610.563 735.405,610.563 688.222,610.563 680.403,610.563 680.403,632.301 
				743.23,632.301 			"/>
		</g>
		<g>
			<path fill="#59A6BC" d="M686.918,752.066c5.173,0,9.381-4.209,9.381-9.381c0-5.174-4.208-9.384-9.381-9.384
				s-9.381,4.21-9.381,9.384C677.537,747.857,681.745,752.066,686.918,752.066z"/>
		</g>
		<g>
			<path fill="#59A6BC" d="M712.811,710.443c5.173,0,9.381-4.209,9.381-9.383c0-5.169-4.208-9.376-9.381-9.376
				s-9.382,4.207-9.382,9.376C703.429,706.234,707.638,710.443,712.811,710.443z"/>
		</g>
		<g>
			<path fill="#59A6BC" d="M659.763,710.443c5.173,0,9.381-4.209,9.381-9.383c0-5.169-4.208-9.376-9.381-9.376
				c-5.173,0-9.381,4.207-9.381,9.376C650.382,706.234,654.59,710.443,659.763,710.443z"/>
		</g>
		<g>
			<path fill="#FFFFFF" d="M734.06,576.894c0-4.725-2.836-8.908-7.224-10.667c-0.002,0-0.003,0-0.003,0
				c-1.374-0.544-2.806-0.82-4.258-0.82h-21.527c-1.451,0-2.88,0.276-4.246,0.82c-4.394,1.754-7.234,5.942-7.234,10.667v30.977
				h44.492V576.894z"/>
		</g>
		<g>
			<rect x="490.011" y="783.023" fill="#59A6BC" width="446.234" height="19.832"/>
		</g>
		<g>
			<path fill="#59A6BC" d="M818.909,710.443c5.176,0,9.387-4.209,9.387-9.383c0-5.169-4.211-9.376-9.387-9.376
				c-5.173,0-9.381,4.207-9.381,9.376C809.528,706.234,813.736,710.443,818.909,710.443z"/>
		</g>
		<g>
			<path fill="#59A6BC" d="M898.484,752.066c5.174,0,9.382-4.209,9.382-9.381c0-5.174-4.208-9.384-9.382-9.384
				c-5.173,0-9.381,4.21-9.381,9.384C889.104,747.857,893.312,752.066,898.484,752.066z"/>
		</g>
		<g>
			<path fill="#59A6BC" d="M871.956,710.443c5.176,0,9.387-4.209,9.387-9.383c0-5.169-4.211-9.376-9.387-9.376
				c-5.173,0-9.381,4.207-9.381,9.376C862.575,706.234,866.783,710.443,871.956,710.443z"/>
		</g>
		<g>
			<path fill="#59A6BC" d="M846.069,752.066c5.17,0,9.375-4.209,9.375-9.381c0-5.174-4.205-9.384-9.375-9.384
				c-5.174,0-9.382,4.21-9.382,9.384C836.688,747.857,840.896,752.066,846.069,752.066z"/>
		</g>
		<g>
			<path fill="#59A6BC" d="M633.871,752.066c5.173,0,9.381-4.209,9.381-9.381c0-5.174-4.208-9.384-9.381-9.384
				s-9.381,4.21-9.381,9.384C624.49,747.857,628.698,752.066,633.871,752.066z"/>
		</g>
		<g>
			<path fill="#59A6BC" d="M793.017,752.066c5.173,0,9.381-4.209,9.381-9.381c0-5.174-4.208-9.384-9.381-9.384
				s-9.381,4.21-9.381,9.384C783.636,747.857,787.844,752.066,793.017,752.066z"/>
		</g>
		<g>
			<path fill="#59A6BC" d="M765.862,710.443c5.17,0,9.376-4.209,9.376-9.383c0-5.169-4.206-9.376-9.376-9.376
				c-5.173,0-9.381,4.207-9.381,9.376C756.481,706.234,760.689,710.443,765.862,710.443z"/>
		</g>
		<g>
			<path fill="#6ECEEA" d="M490.011,780.331h446.234v-117.98H490.011V780.331z M898.484,730.609c6.657,0,12.074,5.417,12.074,12.076
				c0,6.657-5.417,12.073-12.074,12.073c-6.656,0-12.073-5.416-12.073-12.073C886.411,736.026,891.828,730.609,898.484,730.609z
				 M871.956,688.992c6.66,0,12.079,5.413,12.079,12.068c0,6.659-5.419,12.075-12.079,12.075c-6.657,0-12.073-5.416-12.073-12.075
				C859.883,694.405,865.299,688.992,871.956,688.992z M846.069,730.609c6.654,0,12.067,5.417,12.067,12.076
				c0,6.657-5.413,12.073-12.067,12.073c-6.657,0-12.073-5.416-12.073-12.073C833.996,736.026,839.412,730.609,846.069,730.609z
				 M818.909,688.992c6.66,0,12.079,5.413,12.079,12.068c0,6.659-5.419,12.075-12.079,12.075c-6.657,0-12.073-5.416-12.073-12.075
				C806.836,694.405,812.252,688.992,818.909,688.992z M793.017,730.609c6.657,0,12.073,5.417,12.073,12.076
				c0,6.657-5.416,12.073-12.073,12.073s-12.073-5.416-12.073-12.073C780.943,736.026,786.359,730.609,793.017,730.609z
				 M765.862,688.992c6.654,0,12.068,5.413,12.068,12.068c0,6.659-5.414,12.075-12.068,12.075c-6.657,0-12.073-5.416-12.073-12.075
				C753.789,694.405,759.205,688.992,765.862,688.992z M739.97,730.609c6.657,0,12.073,5.417,12.073,12.076
				c0,6.657-5.416,12.073-12.073,12.073s-12.073-5.416-12.073-12.073C727.896,736.026,733.313,730.609,739.97,730.609z
				 M712.811,688.992c6.657,0,12.073,5.413,12.073,12.068c0,6.659-5.416,12.075-12.073,12.075s-12.073-5.416-12.073-12.075
				C700.737,694.405,706.153,688.992,712.811,688.992z M686.918,730.609c6.657,0,12.073,5.417,12.073,12.076
				c0,6.657-5.416,12.073-12.073,12.073s-12.073-5.416-12.073-12.073C674.845,736.026,680.261,730.609,686.918,730.609z
				 M659.763,688.992c6.657,0,12.074,5.413,12.074,12.068c0,6.659-5.417,12.075-12.074,12.075c-6.657,0-12.073-5.416-12.073-12.075
				C647.69,694.405,653.106,688.992,659.763,688.992z M633.871,730.609c6.657,0,12.073,5.417,12.073,12.076
				c0,6.657-5.416,12.073-12.073,12.073s-12.073-5.416-12.073-12.073C621.798,736.026,627.214,730.609,633.871,730.609z
				 M606.711,688.992c6.657,0,12.073,5.413,12.073,12.068c0,6.659-5.417,12.075-12.073,12.075c-6.657,0-12.074-5.416-12.074-12.075
				C594.638,694.405,600.054,688.992,606.711,688.992z M580.824,730.609c6.654,0,12.068,5.417,12.068,12.076
				c0,6.657-5.414,12.073-12.068,12.073c-6.66,0-12.079-5.416-12.079-12.073C568.746,736.026,574.164,730.609,580.824,730.609z
				 M553.665,688.992c6.657,0,12.073,5.413,12.073,12.068c0,6.659-5.417,12.075-12.073,12.075c-6.66,0-12.079-5.416-12.079-12.075
				C541.586,694.405,547.004,688.992,553.665,688.992z M527.772,730.609c6.657,0,12.073,5.417,12.073,12.076
				c0,6.657-5.416,12.073-12.073,12.073s-12.073-5.416-12.073-12.073C515.699,736.026,521.115,730.609,527.772,730.609z"/>
		</g>
		<g>
			<path fill="#59A6BC" d="M527.772,752.066c5.173,0,9.381-4.209,9.381-9.381c0-5.174-4.208-9.384-9.381-9.384
				s-9.381,4.21-9.381,9.384C518.391,747.857,522.599,752.066,527.772,752.066z"/>
		</g>
		<g>
			<path fill="#59A6BC" d="M553.665,710.443c5.173,0,9.381-4.209,9.381-9.383c0-5.169-4.208-9.376-9.381-9.376
				c-5.176,0-9.386,4.207-9.386,9.376C544.278,706.234,548.489,710.443,553.665,710.443z"/>
		</g>
		<g>
			<path fill="#FFFFFF" d="M937.082,634.993H744.576h-65.52H486.546c-6.354,0-11.521,5.172-11.521,11.526v1.604
				c0,6.359,5.167,11.534,11.521,11.534h2.119h448.417c6.355,0,11.526-5.175,11.526-11.534v-1.604
				C948.608,640.165,943.438,634.993,937.082,634.993z"/>
		</g>
		<g>
			<path fill="#AD722A" d="M697.65,5.167v557.962c0.165-0.039,0.334-0.058,0.501-0.092c0.174-0.036,0.347-0.068,0.523-0.097
				c0.783-0.135,1.572-0.227,2.373-0.227h21.527c0.798,0,1.585,0.092,2.367,0.224c0.183,0.031,0.364,0.063,0.546,0.103
				c0.164,0.034,0.331,0.05,0.494,0.092V5.167H697.65z"/>
		</g>
		<g>
			<path fill="#59A6BC" d="M580.824,752.066c5.17,0,9.375-4.209,9.375-9.381c0-5.174-4.206-9.384-9.375-9.384
				c-5.176,0-9.386,4.21-9.386,9.384C571.438,747.857,575.648,752.066,580.824,752.066z"/>
		</g>
		<g>
			<path fill="#59A6BC" d="M606.711,710.443c5.173,0,9.381-4.209,9.381-9.383c0-5.169-4.208-9.376-9.381-9.376
				c-5.173,0-9.381,4.207-9.381,9.376C597.33,706.234,601.538,710.443,606.711,710.443z"/>
		</g>
		<g>
			<path fill="#231F20" d="M931.999,627.134H740.84V604.05c0-0.744-0.604-1.347-1.347-1.347h-7.824v-30.977
				c0-5.517-3.154-10.401-8.077-12.755V0h-2.692v557.965c-0.163-0.042-0.33-0.058-0.494-0.092c-0.182-0.039-0.363-0.071-0.546-0.103
				c-0.782-0.132-1.569-0.224-2.367-0.224h-21.528c-0.801,0-1.589,0.092-2.373,0.227c-0.176,0.028-0.35,0.061-0.523,0.097
				c-0.167,0.034-0.335,0.053-0.501,0.092V0h-2.692v558.975c-4.926,2.351-8.082,7.238-8.082,12.752v30.977h-7.819
				c-0.743,0-1.346,0.603-1.346,1.347v23.084H481.463c-7.837,0-14.213,6.379-14.213,14.219v1.604
				c0,7.846,6.376,14.227,14.213,14.227h0.773v141.851c0,0.744,0.604,1.347,1.346,1.347h448.927c0.742,0,1.346-0.603,1.346-1.347
				V656.997c6.957-0.923,12.363-6.831,12.363-14.04v-1.604C946.218,633.513,939.839,627.134,931.999,627.134z M684.485,571.727
				c0-4.725,2.84-8.913,7.234-10.667c1.366-0.544,2.795-0.82,4.245-0.82h21.528c1.452,0,2.884,0.276,4.258,0.82c0,0,0.001,0,0.003,0
				c4.388,1.759,7.224,5.942,7.224,10.667v30.977h-44.492V571.727z M675.32,605.396h62.828v21.738H675.32V605.396z M931.162,797.688
				H484.928v-19.832h446.234V797.688z M931.162,775.164H484.928v-117.98h446.234V775.164z M943.525,642.957
				c0,6.359-5.171,11.534-11.526,11.534H481.463c-6.354,0-11.521-5.175-11.521-11.534v-1.604c0-6.354,5.167-11.526,11.521-11.526
				h450.536c6.355,0,11.526,5.172,11.526,11.526V642.957z"/>
		</g>
		<g>
			<path fill="#231F20" d="M548.582,707.969c6.657,0,12.073-5.416,12.073-12.075c0-6.655-5.417-12.068-12.073-12.068
				c-6.66,0-12.079,5.413-12.079,12.068C536.503,702.553,541.921,707.969,548.582,707.969z M548.582,686.518
				c5.173,0,9.381,4.207,9.381,9.376c0,5.174-4.208,9.383-9.381,9.383c-5.176,0-9.386-4.209-9.386-9.383
				C539.195,690.725,543.406,686.518,548.582,686.518z"/>
		</g>
		<g>
			<path fill="#231F20" d="M601.628,707.969c6.657,0,12.073-5.416,12.073-12.075c0-6.655-5.417-12.068-12.073-12.068
				c-6.657,0-12.074,5.413-12.074,12.068C589.555,702.553,594.971,707.969,601.628,707.969z M601.628,686.518
				c5.173,0,9.381,4.207,9.381,9.376c0,5.174-4.208,9.383-9.381,9.383c-5.173,0-9.381-4.209-9.381-9.383
				C592.247,690.725,596.455,686.518,601.628,686.518z"/>
		</g>
		<g>
			<path fill="#231F20" d="M654.68,707.969c6.657,0,12.074-5.416,12.074-12.075c0-6.655-5.417-12.068-12.074-12.068
				c-6.657,0-12.073,5.413-12.073,12.068C642.607,702.553,648.023,707.969,654.68,707.969z M654.68,686.518
				c5.173,0,9.381,4.207,9.381,9.376c0,5.174-4.208,9.383-9.381,9.383c-5.173,0-9.381-4.209-9.381-9.383
				C645.299,690.725,649.507,686.518,654.68,686.518z"/>
		</g>
		<g>
			<path fill="#231F20" d="M707.728,707.969c6.657,0,12.073-5.416,12.073-12.075c0-6.655-5.416-12.068-12.073-12.068
				s-12.074,5.413-12.074,12.068C695.654,702.553,701.07,707.969,707.728,707.969z M707.728,686.518
				c5.173,0,9.381,4.207,9.381,9.376c0,5.174-4.208,9.383-9.381,9.383s-9.381-4.209-9.381-9.383
				C698.346,690.725,702.555,686.518,707.728,686.518z"/>
		</g>
		<g>
			<path fill="#231F20" d="M760.779,707.969c6.654,0,12.068-5.416,12.068-12.075c0-6.655-5.414-12.068-12.068-12.068
				c-6.657,0-12.073,5.413-12.073,12.068C748.706,702.553,754.122,707.969,760.779,707.969z M760.779,686.518
				c5.17,0,9.376,4.207,9.376,9.376c0,5.174-4.206,9.383-9.376,9.383c-5.173,0-9.381-4.209-9.381-9.383
				C751.398,690.725,755.606,686.518,760.779,686.518z"/>
		</g>
		<g>
			<path fill="#231F20" d="M813.826,707.969c6.66,0,12.079-5.416,12.079-12.075c0-6.655-5.419-12.068-12.079-12.068
				c-6.657,0-12.073,5.413-12.073,12.068C801.753,702.553,807.169,707.969,813.826,707.969z M813.826,686.518
				c5.176,0,9.387,4.207,9.387,9.376c0,5.174-4.211,9.383-9.387,9.383c-5.173,0-9.381-4.209-9.381-9.383
				C804.445,690.725,808.653,686.518,813.826,686.518z"/>
		</g>
		<g>
			<path fill="#231F20" d="M866.873,707.969c6.66,0,12.079-5.416,12.079-12.075c0-6.655-5.419-12.068-12.079-12.068
				c-6.657,0-12.073,5.413-12.073,12.068C854.8,702.553,860.216,707.969,866.873,707.969z M866.873,686.518
				c5.176,0,9.387,4.207,9.387,9.376c0,5.174-4.211,9.383-9.387,9.383c-5.173,0-9.381-4.209-9.381-9.383
				C857.492,690.725,861.7,686.518,866.873,686.518z"/>
		</g>
		<g>
			<path fill="#231F20" d="M522.689,749.592c6.657,0,12.073-5.416,12.073-12.073c0-6.659-5.416-12.076-12.073-12.076
				s-12.073,5.417-12.073,12.076C510.616,744.176,516.032,749.592,522.689,749.592z M522.689,728.135
				c5.173,0,9.381,4.21,9.381,9.384c0,5.172-4.208,9.381-9.381,9.381s-9.381-4.209-9.381-9.381
				C513.308,732.345,517.516,728.135,522.689,728.135z"/>
		</g>
		<g>
			<path fill="#231F20" d="M575.741,749.592c6.654,0,12.068-5.416,12.068-12.073c0-6.659-5.414-12.076-12.068-12.076
				c-6.66,0-12.079,5.417-12.079,12.076C563.663,744.176,569.081,749.592,575.741,749.592z M575.741,728.135
				c5.17,0,9.375,4.21,9.375,9.384c0,5.172-4.206,9.381-9.375,9.381c-5.176,0-9.386-4.209-9.386-9.381
				C566.355,732.345,570.565,728.135,575.741,728.135z"/>
		</g>
		<g>
			<path fill="#231F20" d="M628.788,749.592c6.657,0,12.073-5.416,12.073-12.073c0-6.659-5.416-12.076-12.073-12.076
				s-12.073,5.417-12.073,12.076C616.715,744.176,622.131,749.592,628.788,749.592z M628.788,728.135
				c5.173,0,9.381,4.21,9.381,9.384c0,5.172-4.208,9.381-9.381,9.381s-9.381-4.209-9.381-9.381
				C619.407,732.345,623.615,728.135,628.788,728.135z"/>
		</g>
		<g>
			<path fill="#231F20" d="M681.835,749.592c6.657,0,12.073-5.416,12.073-12.073c0-6.659-5.416-12.076-12.073-12.076
				s-12.073,5.417-12.073,12.076C669.762,744.176,675.178,749.592,681.835,749.592z M681.835,728.135
				c5.173,0,9.381,4.21,9.381,9.384c0,5.172-4.208,9.381-9.381,9.381s-9.381-4.209-9.381-9.381
				C672.454,732.345,676.662,728.135,681.835,728.135z"/>
		</g>
		<g>
			<path fill="#231F20" d="M734.887,749.592c6.657,0,12.073-5.416,12.073-12.073c0-6.659-5.416-12.076-12.073-12.076
				s-12.073,5.417-12.073,12.076C722.813,744.176,728.229,749.592,734.887,749.592z M734.887,728.135
				c5.173,0,9.381,4.21,9.381,9.384c0,5.172-4.208,9.381-9.381,9.381s-9.381-4.209-9.381-9.381
				C725.506,732.345,729.714,728.135,734.887,728.135z"/>
		</g>
		<g>
			<path fill="#231F20" d="M787.934,749.592c6.657,0,12.073-5.416,12.073-12.073c0-6.659-5.416-12.076-12.073-12.076
				s-12.073,5.417-12.073,12.076C775.86,744.176,781.276,749.592,787.934,749.592z M787.934,728.135c5.173,0,9.381,4.21,9.381,9.384
				c0,5.172-4.208,9.381-9.381,9.381s-9.381-4.209-9.381-9.381C778.553,732.345,782.761,728.135,787.934,728.135z"/>
		</g>
		<g>
			<path fill="#231F20" d="M840.986,749.592c6.654,0,12.067-5.416,12.067-12.073c0-6.659-5.413-12.076-12.067-12.076
				c-6.657,0-12.073,5.417-12.073,12.076C828.913,744.176,834.329,749.592,840.986,749.592z M840.986,728.135
				c5.17,0,9.375,4.21,9.375,9.384c0,5.172-4.205,9.381-9.375,9.381c-5.174,0-9.382-4.209-9.382-9.381
				C831.604,732.345,835.813,728.135,840.986,728.135z"/>
		</g>
		<g>
			<path fill="#231F20" d="M893.401,749.592c6.657,0,12.074-5.416,12.074-12.073c0-6.659-5.417-12.076-12.074-12.076
				c-6.656,0-12.073,5.417-12.073,12.076C881.328,744.176,886.745,749.592,893.401,749.592z M893.401,728.135
				c5.174,0,9.382,4.21,9.382,9.384c0,5.172-4.208,9.381-9.382,9.381c-5.173,0-9.381-4.209-9.381-9.381
				C884.021,732.345,888.229,728.135,893.401,728.135z"/>
		</g>
	</g>
	<g>
		<g>
			<path fill="#FEE654" d="M434.197,734.228c-0.888,0.999-1.224,2.185-1.024,3.626c0.209,1.524,0.911,2.784,2.147,3.849
				c1.23,1.07,2.567,1.588,4.09,1.588c1.422,0,2.56-0.483,3.479-1.479c0.927-0.997,1.301-2.183,1.15-3.634
				c-0.158-1.493-0.838-2.748-2.081-3.836c-1.256-1.083-2.619-1.614-4.158-1.614C436.283,732.727,435.104,733.218,434.197,734.228z"
				/>
		</g>
		<g>
			<path fill="#FEE654" d="M366.142,752.774h148.525l-90.613-128.632L366.142,752.774z M446.715,737.896
				c0.235,2.24-0.388,4.173-1.851,5.745c-1.433,1.554-3.27,2.342-5.454,2.342c-2.169,0-4.139-0.754-5.853-2.245
				c-1.726-1.488-2.754-3.347-3.051-5.519c-0.311-2.232,0.256-4.181,1.684-5.784c1.432-1.596,3.318-2.4,5.609-2.4
				c2.182,0,4.175,0.765,5.923,2.274C445.482,733.847,446.486,735.727,446.715,737.896z M436.288,657.392l5.499,61.435
				c0.06,0.152,0.092,0.317,0.092,0.491c0,0.744-0.604,1.346-1.346,1.346c-0.017,0.003-0.036,0.003-0.054,0h-8.613
				c-0.666,0-1.23-0.486-1.331-1.144l-9.453-61.805c-0.06-0.387,0.054-0.78,0.309-1.08c0.256-0.298,0.628-0.469,1.021-0.469h12.535
				C435.643,656.166,436.226,656.697,436.288,657.392z"/>
		</g>
		<g>
			<path fill="#FEE654" d="M236.204,871.257l14.975-21.396c0.252-0.357,0.664-0.573,1.103-0.573h75.177V485.854L182.829,871.257
				H236.204z"/>
		</g>
		<g>
			<polygon fill="#FEE654" points="439.006,717.972 433.716,658.858 423.98,658.858 433.021,717.972 			"/>
		</g>
		<g>
			<path fill="#FEE654" d="M330.15,479.781v370.852v20.624h53.968l14.976-21.396c0.252-0.357,0.664-0.573,1.103-0.573h109.84
				c0.439,0,0.851,0.216,1.103,0.573l14.977,21.396h53.57L477.146,479.781H330.15z M353.424,498.635
				c0-0.744,0.604-1.346,1.346-1.346h97.449c0.743,0,1.346,0.602,1.346,1.346v16.025c0,17.71-14.41,32.121-32.123,32.121h-35.9
				c-17.71,0-32.119-14.411-32.119-32.121V498.635z M518.662,754.12c0,0.744-0.603,1.347-1.346,1.347
				c-0.017,0.002-0.035,0.002-0.054,0H364.059c-0.456,0-0.882-0.231-1.13-0.615c-0.249-0.385-0.284-0.868-0.098-1.283
				l59.736-132.684c0.198-0.441,0.619-0.741,1.1-0.788c0.482-0.032,0.949,0.171,1.228,0.565l93.288,132.43
				C518.477,753.339,518.662,753.707,518.662,754.12z"/>
		</g>
		<g>
			<path fill="#231F20" d="M577.651,867.094L474.405,472.926c-0.155-0.591-0.69-1.004-1.303-1.004H323.721
				c-0.047,0-0.087,0.021-0.131,0.026c-0.075,0.011-0.146,0.024-0.217,0.045c-0.092,0.023-0.18,0.05-0.263,0.095
				c-0.064,0.031-0.118,0.076-0.175,0.118c-0.07,0.05-0.141,0.095-0.199,0.158c-0.065,0.071-0.113,0.158-0.163,0.242
				c-0.033,0.058-0.073,0.105-0.097,0.163c-0.004,0.011-0.012,0.016-0.016,0.026L174.542,866.963
				c-0.155,0.412-0.097,0.878,0.154,1.24c0.252,0.363,0.665,0.579,1.107,0.579h56.018c0.439,0,0.851-0.216,1.103-0.573
				l14.975-21.396h74.476v20.623c0,0.744,0.604,1.347,1.346,1.347h56.015c0.439,0,0.851-0.216,1.103-0.573l14.976-21.396h108.439
				l14.977,21.396c0.252,0.357,0.664,0.573,1.103,0.573h56.015c0.417,0,0.811-0.195,1.066-0.523
				C577.669,867.928,577.758,867.499,577.651,867.094z M322.375,844.12h-75.177c-0.439,0-0.851,0.216-1.103,0.573l-14.975,21.396
				h-53.375l144.629-385.402V844.12z M521.035,866.09l-14.977-21.396c-0.252-0.357-0.664-0.573-1.103-0.573h-109.84
				c-0.439,0-0.851,0.216-1.103,0.573l-14.976,21.396h-53.968v-20.624V474.614h146.996L574.605,866.09H521.035z"/>
		</g>
		<g>
			<path fill="#231F20" d="M380.459,541.614h35.9c17.713,0,32.123-14.411,32.123-32.121v-16.025c0-0.744-0.604-1.346-1.346-1.346
				h-97.449c-0.743,0-1.346,0.602-1.346,1.346v16.025C348.341,527.203,362.749,541.614,380.459,541.614z M351.033,494.814h94.757
				v14.679c0,16.228-13.203,29.429-29.43,29.429h-35.9c-16.226,0-29.426-13.201-29.426-29.429V494.814z"/>
		</g>
		<g>
			<path fill="#231F20" d="M418.584,614.93c-0.481,0.047-0.902,0.347-1.1,0.788l-59.736,132.684
				c-0.187,0.415-0.151,0.898,0.098,1.283c0.249,0.384,0.674,0.615,1.13,0.615h153.203c0.019,0.002,0.037,0.002,0.054,0
				c0.743,0,1.346-0.603,1.346-1.347c0-0.413-0.185-0.781-0.479-1.028l-93.288-132.43
				C419.533,615.101,419.066,614.897,418.584,614.93z M361.059,747.607l57.912-128.632l90.613,128.632H361.059z"/>
		</g>
		<g>
			<path fill="#231F20" d="M427.107,727.268c-1.428,1.604-1.995,3.552-1.684,5.784c0.297,2.172,1.325,4.03,3.051,5.519
				c1.714,1.491,3.683,2.245,5.853,2.245c2.185,0,4.021-0.788,5.454-2.342c1.463-1.572,2.086-3.505,1.851-5.745
				c-0.229-2.169-1.233-4.049-2.992-5.587c-1.749-1.51-3.741-2.274-5.923-2.274C430.425,724.867,428.539,725.672,427.107,727.268z
				 M438.955,733.01c0.151,1.451-0.223,2.637-1.15,3.634c-0.919,0.996-2.056,1.479-3.479,1.479c-1.522,0-2.859-0.518-4.09-1.588
				c-1.236-1.064-1.938-2.324-2.147-3.849c-0.2-1.441,0.137-2.627,1.024-3.626c0.907-1.01,2.086-1.501,3.602-1.501
				c1.539,0,2.901,0.531,4.158,1.614C438.117,730.262,438.797,731.517,438.955,733.01z"/>
		</g>
		<g>
			<path fill="#231F20" d="M416.307,651.468c-0.255,0.3-0.368,0.693-0.309,1.08l9.453,61.805c0.1,0.657,0.665,1.144,1.331,1.144
				h8.613c0.018,0.003,0.037,0.003,0.054,0c0.743,0,1.346-0.602,1.346-1.346c0-0.174-0.033-0.339-0.092-0.491l-5.499-61.435
				c-0.062-0.694-0.645-1.226-1.341-1.226h-12.535C416.936,650.999,416.563,651.17,416.307,651.468z M428.633,653.691l5.29,59.113
				h-5.985l-9.041-59.113H428.633z"/>
		</g>
	</g>
	<g>
		<path fill="#231F20" d="M1192.154,818.462H1045.73c-0.744,0-1.347-0.603-1.347-1.347s0.603-1.346,1.347-1.346h146.424
			c0.744,0,1.347,0.602,1.347,1.346S1192.898,818.462,1192.154,818.462z"/>
	</g>
	<g>
		<path fill="#231F20" d="M1014.541,867.436H812.823c-0.744,0-1.347-0.602-1.347-1.346s0.603-1.347,1.347-1.347h201.718
			c0.744,0,1.347,0.603,1.347,1.347S1015.285,867.436,1014.541,867.436z"/>
	</g>
	<g>
		<path fill="#231F20" d="M729.542,849.423h-90.115c-0.744,0-1.346-0.602-1.346-1.346s0.602-1.347,1.346-1.347h90.115
			c0.744,0,1.346,0.603,1.346,1.347S730.286,849.423,729.542,849.423z"/>
	</g>
	<g>
		<path fill="#231F20" d="M958.739,829.23h-90.115c-0.744,0-1.346-0.602-1.346-1.346s0.602-1.347,1.346-1.347h90.115
			c0.744,0,1.346,0.603,1.346,1.347S959.483,829.23,958.739,829.23z"/>
	</g>
</g>
</svg>
