<?xml version="1.0" encoding="utf-8"?>
<!-- Generator: Adobe Illustrator 19.0.0, SVG Export Plug-In . SVG Version: 6.00 Build 0)  -->
<svg version="1.1" id="Layer_1" xmlns="http://www.w3.org/2000/svg" xmlns:xlink="http://www.w3.org/1999/xlink" x="0px" y="0px"
	 viewBox="0 0 1400 980" style="enable-background:new 0 0 1400 980;" xml:space="preserve">
<style type="text/css">
	.st0{fill:#BCBCBC;}
	.st1{fill:#FFFFFF;}
	.st2{fill:#F0C84A;}
	.st3{fill:#E15B49;}
	.st4{fill:#F4EFED;}
	.st5{fill:#C6C6C5;}
	.st6{fill:#219BC1;}
	.st7{fill:#43B39C;}
	.st8{fill:#E27C3B;}
	.st9{fill:#DEDDDD;}
	.st10{fill:#1389A5;}
	.st11{fill:#107F99;}
	.st12{fill:#D981B5;}
	.st13{fill:none;stroke:#1C1F21;stroke-width:5;stroke-linejoin:round;stroke-miterlimit:10;}
</style>
<g id="XMLID_804_">
	<path id="XMLID_828_" class="st0" d="M373.7,186.5c-7,0-13.5,2.7-18.6,7.8L248.9,300.5L237.4,289l-20.1,20.1
		c-4.7-0.8-9.4-1.2-14.2-1.2c-19.1,0-37.3,6.5-51.9,18.4c-0.9-0.1-1.9-0.2-2.8-0.2c-6,0-11.7,2.3-15.9,6.6c-8.8,8.8-8.8,23,0,31.8
		l96.1,96.1c4.3,4.3,9.9,6.6,15.9,6.6c6,0,11.7-2.3,15.9-6.6c5.1-5.1,7.3-12.1,6.4-18.8c15-18.4,21.3-42.6,17.2-66.1l20.1-20.1
		l-12.5-12.5L397.8,237c7.9-7.9,10-19,5.5-29.6C398.3,195.1,386,186.5,373.7,186.5z"/>
	<path id="XMLID_824_" class="st1" d="M367.1,173.4c-7,0-13.5,2.7-18.6,7.8L242.3,287.4l-11.5-11.5L210.8,296
		c-4.7-0.8-9.4-1.2-14.2-1.2c-19.1,0-37.3,6.5-51.9,18.4c-0.9-0.1-1.9-0.2-2.8-0.2c-6,0-11.7,2.3-15.9,6.6c-8.8,8.8-8.8,23,0,31.8
		l96.1,96.1c4.3,4.3,9.9,6.6,15.9,6.6c6,0,11.7-2.3,15.9-6.6c5.1-5.1,7.3-12.1,6.4-18.8c15-18.4,21.3-42.6,17.2-66.1l20.1-20.1
		l-12.5-12.5L391.3,224c7.9-7.9,10-19,5.5-29.6C391.7,182,379.5,173.4,367.1,173.4z"/>
	<g id="XMLID_634_">
		<path id="XMLID_636_" class="st2" d="M357.8,190.5c13.5-13.5,37.7,10.7,24.2,24.2L266.6,330.2l-24.2-24.2L357.8,190.5z"/>
		<path id="XMLID_635_" class="st3" d="M245.4,425.8L245.4,425.8c18.3-18.3,24.2-44.1,17.8-67.3l15.9-15.9l-48.2-48.2l-15.9,15.9
			c-23.2-6.4-49-0.5-67.2,17.7l-0.1,0.1c-3.7-2.9-9.1-2.7-12.5,0.7v0c-3.7,3.7-3.7,9.6,0,13.3l96.1,96.1c3.7,3.7,9.6,3.7,13.3,0v0
			C248,434.9,248.3,429.5,245.4,425.8z"/>
	</g>
</g>
<g id="XMLID_628_">
	<path id="XMLID_823_" class="st0" d="M659.1,382.5v-19.2c0-18.1-14.7-32.9-32.9-32.9h-4.8v-20.1c0-11.6-9.4-21-21-21H499.9
		c-11.6,0-21,9.4-21,21v20.1h-5.1c-18.1,0-32.9,14.7-32.9,32.9v21.3l-8.7,55.2c-1.1,6.9,0.9,13.8,5.4,19.1c4.5,5.3,11.1,8.3,18,8.3
		h189c7,0,13.5-3,18-8.3c4.5-5.3,6.5-12.3,5.4-19.1L659.1,382.5z"/>
	<path id="XMLID_825_" class="st1" d="M652.6,369.4v-19.2c0-18.1-14.7-32.9-32.9-32.9h-4.8v-20.1c0-11.6-9.4-21-21-21H493.3
		c-11.6,0-21,9.4-21,21v20.1h-5.1c-18.1,0-32.9,14.7-32.9,32.9v21.3l-8.7,55.2c-1.1,6.9,0.9,13.8,5.4,19.1c4.5,5.3,11.1,8.3,18,8.3
		h189c7,0,13.5-3,18-8.3c4.5-5.3,6.5-12.3,5.4-19.1L652.6,369.4z"/>
	<g id="XMLID_803_">
		<path id="XMLID_633_" class="st4" d="M638.1,441h-189c-6.6,0-11.6-5.9-10.5-12.3l9.2-58.3h191.7l9.2,58.3
			C649.7,435.2,644.7,441,638.1,441z"/>
		<g id="XMLID_627_">
			
				<rect id="XMLID_777_" x="466.5" y="370.3" transform="matrix(0.9931 0.1172 -0.1172 0.9931 48.6087 -52.3921)" class="st5" width="6.5" height="33.6"/>
			
				<rect id="XMLID_776_" x="503.4" y="370.4" transform="matrix(0.9983 5.897472e-002 -5.897472e-002 0.9983 23.7109 -29.2086)" class="st5" width="6.5" height="33.4"/>
			<rect id="XMLID_775_" x="540.4" y="370.4" class="st5" width="6.5" height="33.4"/>
			
				<rect id="XMLID_774_" x="563.8" y="383.8" transform="matrix(5.890872e-002 0.9983 -0.9983 5.890872e-002 932.7883 -215.26)" class="st5" width="33.4" height="6.5"/>
			
				<rect id="XMLID_773_" x="600.7" y="383.8" transform="matrix(0.1172 0.9931 -0.9931 0.1172 929.5237 -271.5245)" class="st5" width="33.6" height="6.5"/>
		</g>
		<path id="XMLID_625_" class="st6" d="M639.5,370.4H447.4v-24.9c0-8.4,6.8-15.1,15.1-15.1h161.8c8.4,0,15.1,6.8,15.1,15.1V370.4z"
			/>
		<path id="XMLID_621_" class="st7" d="M593.9,289.2H493.3c-4.4,0-7.9,3.5-7.9,7.9v33.2h25.8v-17.8h68.2v17.8h22.4v-33.2
			C601.8,292.8,598.3,289.2,593.9,289.2z"/>
	</g>
</g>
<g id="XMLID_862_">
	<path id="XMLID_629_" class="st0" d="M1021.8,359.1l13.4-13.4L838.5,149L807,180.4l0.4,0.4c-4.1,6-6.4,13.1-6.4,20.5
		c0,9.7,3.8,18.8,10.6,25.6l43.7,43.7l-14.2,14.2l8,8l-3.1,3.1l0,0l-15.7,15.7l-2.8,2.8l0,0l-103,103c-7.8,7.8-9.8,18.7-5.5,29.2
		c5,12.1,17,20.5,29.2,20.5c6.8,0,13.4-2.7,18.3-7.7L888.2,338l0,0l3.1-3.1l8,8l14.2-14.2l43.7,43.7c7.1,7.1,16.4,10.6,25.6,10.6
		c7.2,0,14.4-2.1,20.5-6.4l0.4,0.4l4.6-4.6c0,0,0,0,0,0L1021.8,359.1z M830.2,208.5c-1.9-1.9-3-4.4-3-7.1c0-0.2,0-0.5,0-0.7
		l49.1,49.1l-2.5,2.5L830.2,208.5z M982.8,356.9c-2.7,0-5.2-1.1-7.1-3l-43.7-43.7l2.5-2.5l49.1,49.1
		C983.3,356.9,983,356.9,982.8,356.9z"/>
	<path id="XMLID_849_" class="st1" d="M1015.3,346l13.4-13.4L831.9,135.9l-31.5,31.5l0.4,0.4c-4.1,6-6.4,13.1-6.4,20.5
		c0,9.7,3.8,18.8,10.6,25.6l43.7,43.7l-14.2,14.2l8,8l-3.1,3.1l0,0l-15.7,15.7l-2.8,2.8l0,0l-103,103c-7.8,7.8-9.8,18.7-5.5,29.2
		c5,12.1,17,20.5,29.2,20.5c6.8,0,13.4-2.7,18.3-7.7l121.5-121.5l0,0l3.1-3.1l8,8l14.2-14.2l43.7,43.7c7.1,7.1,16.4,10.6,25.6,10.6
		c7.2,0,14.4-2.1,20.5-6.4l0.4,0.4l4.6-4.6c0,0,0,0,0,0L1015.3,346z M823.7,195.4c-1.9-1.9-3-4.4-3-7.1c0-0.2,0-0.5,0-0.7l49.1,49.1
		l-2.5,2.5L823.7,195.4z M976.3,343.8c-2.7,0-5.2-1.1-7.1-3l-43.7-43.7l2.5-2.5l49.1,49.1C976.7,343.8,976.5,343.8,976.3,343.8z"/>
	<g id="XMLID_616_">
		<path id="XMLID_620_" class="st8" d="M870.1,260.4l-55.7-55.7c-9.1-9.1-9.1-23.7,0-32.8l17.5-17.5l178.2,178.2l-17.5,17.5
			c-9.1,9.1-23.7,9.1-32.8,0l-55.7-55.7"/>
		<path id="XMLID_619_" class="st2" d="M750.9,437.2c-13.2,13.2-36.7-10.4-23.5-23.5l112.2-112.2l23.5,23.5L750.9,437.2z"/>
		
			<rect id="XMLID_618_" x="788.6" y="240.8" transform="matrix(-0.7071 -0.7071 0.7071 -0.7071 1384.5441 1073.4221)" class="st9" width="252.1" height="18.3"/>
		<path id="XMLID_617_" class="st6" d="M915.3,288.7l-39.5-39.5l-22.6,22.6l0,0c4.4,4.4,4.7,11.3,0.6,15.4l-14.2,14.2l23.5,23.5
			l14.2-14.2c4.1-4.1,11-3.8,15.4,0.6l0,0L915.3,288.7z"/>
	</g>
</g>
<g id="XMLID_895_">
	<path id="XMLID_614_" class="st0" d="M1275.1,241.6c-11.4-10.1-16.8-23.5-19.4-33.5h2.4c9.4,0,17-7.6,17-17v-15.6
		c0-9.4-7.6-17-17-17h-6.6c-2.8-2.6-6.5-4.2-10.6-4.2h-89.6c-9,0-17.4,4.5-22.4,12l-13.7,20.7c-7.4,11.2-5.3,26.3,4.8,35.1l10.8,9.4
		v16.1c-1.8,2.9-2.7,6.2-2.5,9.6c1.6,24.3-1.6,46.2-7.6,52c-15.8,15.1-52.8,50.5-35,106.4c16.4,51.5,55.5,51.5,72.2,51.5
		c2.2,0,4.3,0,6.4-0.1c1.8,0,3.5-0.1,5.1-0.1c1.6,0,3.4,0,5.1,0.1c2,0,4.2,0.1,6.3,0.1c0,0,0,0,0.1,0c16.7,0,55.7-0.1,72.1-51.5
		c17.9-55.9-19.1-91.3-35-106.4c-6.1-5.8-9.3-27.7-7.6-52c0.2-3.4-0.7-6.8-2.5-9.7v-23.1l1.9-1.1c8.8,21.2,22.1,33.8,30.5,40
		c5.7,4.3,12.5,6.5,19.7,6.5h4.1c6.8,0,12.8-4.1,15.2-10.5C1282,253.3,1280.2,246.2,1275.1,241.6z"/>
	<path id="XMLID_906_" class="st1" d="M1268.6,228.5c-11.4-10.1-16.8-23.5-19.4-33.5h2.4c9.4,0,17-7.6,17-17v-15.6
		c0-9.4-7.6-17-17-17h-6.6c-2.8-2.6-6.5-4.2-10.6-4.2h-89.6c-9,0-17.4,4.5-22.4,12l-13.7,20.7c-7.4,11.2-5.3,26.3,4.8,35.1l10.8,9.4
		v16.1c-1.8,2.9-2.7,6.2-2.5,9.6c1.6,24.3-1.6,46.2-7.6,52c-15.8,15.1-52.8,50.5-35,106.4c16.4,51.5,55.5,51.5,72.2,51.5
		c2.2,0,4.3,0,6.4-0.1c1.8,0,3.5-0.1,5.1-0.1c1.6,0,3.4,0,5.1,0.1c2,0,4.2,0.1,6.3,0.1c0,0,0,0,0.1,0c16.7,0,55.7-0.1,72.1-51.5
		c17.9-55.9-19.1-91.3-35-106.4c-6.1-5.8-9.3-27.7-7.6-52c0.2-3.4-0.7-6.8-2.5-9.7v-23.1l1.9-1.1c8.8,21.2,22.1,33.8,30.5,40
		c5.7,4.3,12.5,6.5,19.7,6.5h4.1c6.8,0,12.8-4.1,15.2-10.5C1275.4,240.2,1273.7,233.1,1268.6,228.5z"/>
	<g id="XMLID_610_">
		<path id="XMLID_612_" class="st3" d="M1235.1,158.6h16.6c2.2,0,3.9,1.8,3.9,3.9v15.6c0,2.2-1.8,3.9-3.9,3.9h-16.6V158.6z"/>
		<path id="XMLID_613_" class="st3" d="M1233.7,181.1c0,0,0.7,34.5,26.1,57.2c2.2,2,0.9,5.7-2.1,5.7h-4.1c-4.3,0-8.4-1.4-11.9-3.9
			c-9.2-6.8-26.1-23.2-31.9-53.9L1233.7,181.1z"/>
		<path id="XMLID_615_" class="st8" d="M1137.4,240.3v-27.7l-15.3-13.3c-5.2-4.5-6.3-12.2-2.5-18l13.7-20.7
			c2.5-3.8,6.8-6.2,11.5-6.2h89.6c1.4,0,2.5,1.1,2.5,2.5v27.5c0,1.4-1.1,2.5-2.5,2.5H1219l-30.4,16.9v36.4H1137.4z"/>
		<rect id="XMLID_901_" x="1137.4" y="212.6" class="st9" width="51.1" height="27.7"/>
		<path id="XMLID_611_" class="st7" d="M1202.7,305.7c-13.9-13.2-12.4-51.2-11.6-62.3c0.1-1.7-1.2-3.1-2.9-3.1H1163h-25.1
			c-1.7,0-3,1.4-2.9,3.1c0.8,11.1,2.2,49.1-11.6,62.3c-16.3,15.6-46.7,45.3-31.5,93c14.9,46.8,49.5,42.3,71.2,42.3
			c21.8,0,56.3,4.5,71.2-42.3C1249.4,351,1219,321.3,1202.7,305.7z"/>
	</g>
</g>
<g id="XMLID_456_">
	<path id="XMLID_455_" class="st0" d="M708.1,844.1l39.8-150.9h37v-33.5h11.8v-102c0-15.7,13.1-27.6,30.5-27.6
		c17.4,0,30.5,11.8,30.5,27.6v102h11.8v33.5h37l39.8,150.9H708.1z"/>
	<path id="XMLID_912_" class="st1" d="M701.5,831l39.8-150.9h37v-33.5h11.8v-102c0-15.7,13.1-27.6,30.5-27.6
		c17.4,0,30.5,11.8,30.5,27.6v102h11.8v33.5h37L939.7,831H701.5z"/>
	<g id="XMLID_452_">
		<polygon id="XMLID_458_" class="st6" points="922.7,818 718.5,818 751.4,693.3 889.8,693.3 		"/>
		<polygon id="XMLID_910_" class="st10" points="884.6,789.7 757.4,789.7 718.5,818 922.7,818 		"/>
		<rect id="XMLID_457_" x="751.4" y="693.3" class="st11" width="138.4" height="100.5"/>
		<path id="XMLID_454_" class="st2" d="M803.2,544.7c0-19.3,34.9-19.3,34.9,0l0,83.1h-34.9V544.7z"/>
		<path id="XMLID_453_" class="st8" d="M791.4,693.3h58.5v-33.5l0,0c-6.5,0-11.8-4.9-11.8-11v-21h-34.9v21c0,6.1-5.3,11-11.8,11l0,0
			V693.3z"/>
	</g>
</g>
<g id="XMLID_450_">
	<path id="XMLID_439_" class="st0" d="M1247.3,631.4h-8.9c-5.3-9-15.1-15-26.3-15h-145.6c-11.2,0-21,6-26.3,15h-8.9
		c-11.2,0-20.3,9.1-20.3,20.3s9.1,20.3,20.3,20.3h4.7v111v36.6v24.5h206.7V672h4.7c11.2,0,20.3-9.1,20.3-20.3
		S1258.5,631.4,1247.3,631.4z"/>
	<path id="XMLID_605_" class="st1" d="M1240.8,618.3h-8.9c-5.3-9-15.1-15-26.3-15H1060c-11.2,0-21,6-26.3,15h-8.9
		c-11.2,0-20.3,9.1-20.3,20.3c0,11.2,9.1,20.3,20.3,20.3h4.7v111v36.6V831h206.7V658.9h4.7c11.2,0,20.3-9.1,20.3-20.3
		C1261.1,627.4,1252,618.3,1240.8,618.3z"/>
	<g id="XMLID_435_">
		<path id="XMLID_490_" class="st2" d="M1240.8,645.8H1223v-14.4h17.8c4,0,7.2,3.2,7.2,7.2v0C1248,642.6,1244.8,645.8,1240.8,645.8z
			"/>
		<path id="XMLID_436_" class="st2" d="M1042.5,645.8h-17.8c-4,0-7.2-3.2-7.2-7.2v0c0-4,3.2-7.2,7.2-7.2h17.8V645.8z"/>
		<path id="XMLID_438_" class="st12" d="M1223,818h-180.5V629.7c0-7.4,6-13.3,13.3-13.3h153.9c7.4,0,13.3,6,13.3,13.3V818z"/>
		<g id="XMLID_437_">
			<g id="XMLID_704_">
				<rect id="XMLID_705_" x="1042.5" y="783" class="st2" width="180.5" height="10.5"/>
			</g>
		</g>
	</g>
</g>
<g id="XMLID_894_">
	<path id="XMLID_819_" class="st0" d="M290.7,804c-0.8-10.6-1.9-21.9-2.9-32.7c-3.3-34.4-7-73.3-1.8-90.2
		c3.3-10.8,0.3-22.3-7.8-29.9l-38.1-35.7l16-27.7c2-3.5,2.5-7.5,1.7-11.3l4-8.2c0.7-1.5,1.2-3,1.6-4.6c1.4-6.7-0.9-13.9-6.3-18.5
		l-6.3-5.4c-3.5-3-8-4.7-12.6-4.7c-3.8,0-7.5,1.1-10.7,3.3l-9.2,6.2c-3.3,0.3-6.4,1.6-8.9,3.8l-23.4,20.7c-1-0.2-2.1-0.3-3.1-0.3
		c-5.6,0-10.9,2.4-14.6,6.6c-7.4,8.4-19.8,26-19.8,50.4v3.3l1.6,2.9c0.6,1.1,3.6,8.3,3.5,42c-0.1,22.9-1.5,51.8-2.8,79.8
		c-0.8,17-1.7,34.6-2.2,50.8l0,0.4c0,21.6,17.6,39.2,39.2,39.2h64.1c21.6,0,39.2-17.6,39.2-39.2v-0.5L290.7,804z"/>
	<path id="XMLID_898_" class="st1" d="M284.2,790.9c-0.8-10.6-1.9-21.9-2.9-32.7c-3.3-34.4-7-73.3-1.8-90.2
		c3.3-10.8,0.3-22.3-7.8-29.9l-38.1-35.7l16-27.7c2-3.5,2.5-7.5,1.7-11.3l4-8.2c0.7-1.5,1.2-3,1.6-4.6c1.4-6.7-0.9-13.9-6.3-18.5
		l-6.3-5.4c-3.5-3-8-4.7-12.6-4.7c-3.8,0-7.5,1.1-10.7,3.3l-9.2,6.2c-3.3,0.3-6.4,1.6-8.9,3.8L179.2,556c-1-0.2-2.1-0.3-3.1-0.3
		c-5.6,0-10.9,2.4-14.6,6.6c-7.4,8.4-19.8,26-19.8,50.4v3.3l1.6,2.9c0.6,1.1,3.6,8.3,3.5,42c-0.1,22.9-1.5,51.8-2.8,79.8
		c-0.8,17-1.7,34.6-2.2,50.8l0,0.4c0,21.6,17.6,39.2,39.2,39.2H245c21.6,0,39.2-17.6,39.2-39.2v-0.5L284.2,790.9z"/>
	<g id="XMLID_487_">
		<g id="XMLID_488_">
			<path id="XMLID_609_" class="st12" d="M171.3,571c-6.2,7-16.5,21.7-16.5,41.7c10.1,18.7,2.4,109.9,0,179.2
				c0,14.4,11.7,26.1,26.1,26.1H245c14.4,0,26.1-11.7,26.1-26.1c-3.6-46.9-11.9-102.8-4.2-127.8c1.8-5.9,0.2-12.3-4.3-16.5l-82.2-77
				C177.9,568.1,173.7,568.3,171.3,571z"/>
			<path id="XMLID_489_" class="st2" d="M241.8,542.1l-6.3-5.4c-2.1-1.8-5.2-2-7.5-0.5l-13.3,8.9l0,0c-1-0.8-2.4-0.8-3.4,0
				l-29.8,26.4l35.5,33.3l21.2-36.7c0.6-1.1,0.4-2.4-0.5-3.2l-1.2-1l7-14.4C244.6,547,244,543.9,241.8,542.1z"/>
		</g>
		<path id="XMLID_811_" class="st13" d="M237.5,569.2"/>
		<path id="XMLID_486_" class="st13" d="M209.6,546.6"/>
		<path id="XMLID_897_" class="st8" d="M241.8,542.1l-6.3-5.4c-2.1-1.8-5.2-2-7.5-0.5l-13.3,8.9l21.7,18.8l7-14.4
			C244.6,547,244,543.9,241.8,542.1z"/>
	</g>
</g>
<g id="XMLID_229_">
	<path id="XMLID_145_" class="st0" d="M635.3,597.4c-4-9.7-15.1-20-27.7-20c-5.8,0-11.2,2.2-15.3,6.3l-87.4,87.4
		c-1.9-0.6-4-0.9-6-0.9c-5.3,0-10.2,2-13.9,5.8L466,694.9c-5.7-1.4-11.6-2.1-17.6-2.1c-19.7,0-38.1,7.7-52,21.5l-18.5,18.5
		c-4.8,4.8-11.6,15.8-3.4,35.6c6.2,15.1,20.3,33.4,37.7,48.9c11.1,10,32.6,26.7,51.3,26.7c0,0,0,0,0,0c7.3,0,13.7-2.5,18.4-7.2
		l18.5-18.5c18.3-18.3,25.5-44.9,19.4-69.6l18.9-18.9c3.7-3.7,5.8-8.7,5.8-13.9c0-2.1-0.3-4.1-0.9-6l87.4-87.4
		C637.4,616,639.1,606.6,635.3,597.4z"/>
	<path id="XMLID_501_" class="st1" d="M628.7,584.3c-4-9.7-15.1-20-27.7-20c-5.8,0-11.2,2.2-15.3,6.3l-87.4,87.4
		c-1.9-0.6-4-0.9-6-0.9c-5.3,0-10.2,2-13.9,5.8l-18.8,18.8c-5.7-1.4-11.6-2.1-17.6-2.1c-19.7,0-38.1,7.7-52,21.5l-18.5,18.5
		c-4.8,4.8-11.6,15.8-3.4,35.6c6.2,15.1,20.3,33.4,37.7,48.9c11.1,10,32.6,26.7,51.3,26.7c0,0,0,0,0,0c7.3,0,13.7-2.5,18.4-7.2
		l18.5-18.5c18.3-18.3,25.5-44.9,19.4-69.6l18.9-18.9c3.7-3.7,5.8-8.7,5.8-13.9c0-2.1-0.3-4.1-0.9-6l87.4-87.4
		C630.9,602.9,632.5,593.5,628.7,584.3z"/>
	<g id="XMLID_476_">
		<path id="XMLID_483_" class="st3" d="M463.6,696.2l24-24c2.6-2.6,6.8-2.6,9.4,0l26,26c2.6,2.6,2.6,6.8,0,9.4L498,732.4
			L463.6,696.2z"/>
		<path id="XMLID_485_" class="st4" d="M466.1,814.6c-21.4,21.4-107-64.1-85.6-85.6l18.5-18.5c23.6-23.6,61.9-23.6,85.6,0l0,0
			c23.6,23.6,23.6,61.9,0,85.6L466.1,814.6z"/>
		<path id="XMLID_484_" class="st2" d="M499.8,675.1L595,580c9.5-9.5,29.7,10.7,20.2,20.2L520,695.3"/>
		<g id="XMLID_473_">
			<path id="XMLID_479_" class="st5" d="M395.3,740.2l-13.7,13.7c1,2,2,4,3.3,6l15.1-15.1L395.3,740.2z"/>
			<path id="XMLID_480_" class="st5" d="M418.9,753l-22.6,22.6c1.4,1.7,2.8,3.3,4.3,5l23-23L418.9,753z"/>
			<path id="XMLID_481_" class="st5" d="M437,771.2l-23,23c1.6,1.5,3.3,2.9,5,4.3l22.7-22.7L437,771.2z"/>
			<path id="XMLID_482_" class="st5" d="M449.9,794.8l-15.2,15.2c2,1.2,4,2.3,5.9,3.3l13.8-13.8L449.9,794.8z"/>
		</g>
	</g>
</g>
</svg>
