<?xml version="1.0" encoding="utf-8"?>
<!-- Generator: Adobe Illustrator 18.0.0, SVG Export Plug-In . SVG Version: 6.00 Build 0)  -->
<!DOCTYPE svg PUBLIC "-//W3C//DTD SVG 1.1//EN" "http://www.w3.org/Graphics/SVG/1.1/DTD/svg11.dtd">
<svg version="1.1" id="Layer_1" xmlns="http://www.w3.org/2000/svg" xmlns:xlink="http://www.w3.org/1999/xlink" x="0px" y="0px"
	 width="1400px" height="980px" viewBox="0 0 1400 980" enable-background="new 0 0 1400 980" xml:space="preserve">
<g>
	<path fill="#3F7F9C" d="M409.1,262.4H236.6V226h121.1c12.2,0,22-9.9,22-22c0-12.2-9.9-22-22-22H224.4c-12.2,0-22,9.9-22,22v58.4
		h-20.2V302h226.9V262.4z"/>
	<path fill="#3F7F9C" d="M392.7,315.7h-20.2c-5.2,23.6,4.5,60.1,4.8,61c-17.8-26-16.5-61-16.5-61h-23.2c-5.2,23.6,4.5,60.1,4.8,61
		c-17.8-26-16.5-61-16.5-61h-23.2c-5.2,23.6,4.5,60.1,4.8,61c-17.8-26-16.5-61-16.5-61h-23.2c-5.2,23.6,4.5,60.1,4.8,61
		c-17.8-26-16.5-61-16.5-61H233c-5.2,23.6,4.5,60.1,4.8,61c-17.8-26-16.5-61-16.5-61h-26c0,0,0.3,52.8,24.2,76.1h197.3
		C393,368.5,392.7,315.7,392.7,315.7z"/>
</g>
<g>
	<path fill="#3F7F9C" d="M230.3,611.8c22.8,0,41.3-18.5,41.3-41.3v-82.6c0-11.4-4.6-21.7-12.1-29.2c-7.5-7.5-17.8-12.1-29.2-12.1
		c-22.8,0-41.3,18.5-41.3,41.3v82.6C189,593.3,207.5,611.8,230.3,611.8z M214.4,505.6c0-8.8,7.1-15.9,15.9-15.9
		c4.4,0,8.3,1.8,11.2,4.6c2.9,2.9,4.6,6.8,4.6,11.2v52.6c0,8.7-7.1,15.8-15.9,15.8c-8.8,0-15.9-7.1-15.9-15.8V505.6z"/>
	<path fill="#3F7F9C" d="M391.1,446.6H271.7c10.6,10.6,17.1,25.2,17.1,41.3v82.6c0,16.1-6.6,30.7-17.1,41.3h119.5
		c11.4,0,21.7-4.6,29.2-12.1c7.5-7.5,12.1-17.8,12.1-29.2v-82.6C432.4,465.1,413.9,446.6,391.1,446.6z"/>
	<path fill="#3F7F9C" d="M200.2,656.9h18.1v6.9h-18.1V798h179.6V663.8h-18v-6.9h18v-26.7H200.2V656.9z M334.9,656.9h18v6.9h-18
		V656.9z M308,656.9h18v6.9h-18V656.9z M281,656.9h18v6.9h-18V656.9z M254.1,656.9h18v6.9h-18V656.9z M227.2,656.9h18.1v6.9h-18.1
		V656.9z"/>
</g>
<g>
	<path fill="#3F7F9C" d="M559.2,719.5c24.4,25.5,59.1,32,83.9,32.9c6.9,0.3,13.4,0.1,19.4-0.3c-7.8-26.9-54.2-4.3-92.9-47
		c-36.3-40-45-78-47.8-138.3h-9.3C511.9,578.4,508.6,666.5,559.2,719.5z"/>
	<path fill="#3F7F9C" d="M516.2,726.2c-16.5-23.8-26.4-58.2-29.6-102.3c-2-27.5-0.5-50.5,0-57.2h-10.2c0,0-17.9,153,55.1,204.5
		c46.6,32.9,90.7,31.6,114.4,16.7c-12.3-0.2-29.5-2.7-46.6-7.5C573.3,773.1,538,757.7,516.2,726.2z"/>
	<path fill="#3F7F9C" d="M650.5,760.1c-31.7,0-70.5-7.8-96.9-35.4c-29.6-30.9-41.2-72.8-45.8-102.5c-4.2-27.3-3.4-49.1-3-55.6h-10.6
		c-0.9,11.7-7,104.3,28.2,155.1c35.8,51.7,114.7,60.7,132.9,58.1c5.3-5.9,8.3-12.9,8.3-20.3C659.5,760,655.1,760.1,650.5,760.1z"/>
	<path fill="#3F7F9C" d="M521.5,541.9c0-11.8-9.6-21.4-21.4-21.4h-1.7c-11.8,0-21.4,9.6-21.4,21.4v11.1h44.6V541.9z"/>
	<path fill="#3F7F9C" d="M491.9,511.4h14.7V254.8h5.7v-41.7l-7.3-28h-11.5l-7.3,28v41.7h5.7V511.4z M492.2,212.5l3.9-15h6.2l3.9,15
		v4.6v5h-14v-5V212.5z"/>
</g>
<g>
	<path fill="#3F7F9C" d="M698.6,450.6c35.9,0,65.1-29.2,65.1-65.1s-29.2-65.1-65.1-65.1c-35.9,0-65.1,29.2-65.1,65.1
		S662.7,450.6,698.6,450.6z M698.6,330.9c30.1,0,54.5,24.4,54.5,54.5c0,30.1-24.4,54.5-54.5,54.5c-30.1,0-54.5-24.4-54.5-54.5
		C644.1,355.4,668.5,330.9,698.6,330.9z"/>
	<path fill="#3F7F9C" d="M792.1,188.5h-187c-10.1,0-18.4,8.2-18.4,18.4v43.5h223.7v-43.5C810.5,196.7,802.3,188.5,792.1,188.5z
		 M667.1,236.4h-59.4v-31.3h59.4V236.4z M709.2,226.1c-5.8,0-10.5-4.7-10.5-10.5c0-5.8,4.7-10.5,10.5-10.5c5.8,0,10.5,4.7,10.5,10.5
		C719.7,221.4,715,226.1,709.2,226.1z M740.4,226.1c-5.8,0-10.5-4.7-10.5-10.5c0-5.8,4.7-10.5,10.5-10.5c5.8,0,10.5,4.7,10.5,10.5
		C750.9,221.4,746.2,226.1,740.4,226.1z M797,221.2c0,2.7-2.2,4.9-4.9,4.9h-25.3c-2.7,0-4.9-2.2-4.9-4.9V210c0-2.7,2.2-4.9,4.9-4.9
		h25.3c2.7,0,4.9,2.2,4.9,4.9V221.2z"/>
	<path fill="#3F7F9C" d="M586.8,496.2c0,10.1,8.2,18.4,18.4,18.4h187c10.1,0,18.4-8.2,18.4-18.4V262.7H586.8V496.2z M698.6,310.4
		c41.4,0,75,33.7,75,75c0,41.4-33.7,75-75,75c-41.4,0-75-33.7-75-75C623.6,344.1,657.3,310.4,698.6,310.4z"/>
	<path fill="#3F7F9C" d="M698.6,431.3c25.3,0,45.9-20.5,45.9-45.9c0-2.5-0.2-4.9-0.6-7.2c-6.4,4.7-25.8,16.2-49.6,3.5
		c-21.9-11.6-35.9-1.3-41.5,4.6C653.3,411.3,673.6,431.3,698.6,431.3z"/>
</g>
<g>
	<path fill="#3F7F9C" d="M839.8,745.3h50.8h108.2c0,0,4.2-24.4-17.7-24.4c-9.8,0-38.8,0-68.1,0c0,0,2-16.6-11.1-30.5
		c-5.9-6.3-14.3-9.6-23-9.6h0v-27.3h-13.6h-13.6v27.3h0c-8.6,0-17,3.3-23,9.6c-13.2,13.9-11.1,30.5-11.1,30.5c-29.3,0-58.3,0-68.1,0
		c-21.9,0-17.7,24.4-17.7,24.4H839.8z"/>
	<path fill="#3F7F9C" d="M731.3,752.1L719,786.4c-1.1,3.1,0.5,5.6,3.6,5.6s6.5-2.5,7.5-5.6l11.4-34.3H731.3z"/>
	<path fill="#3F7F9C" d="M746.5,752.1l-10.9,34.3c-1,3.1,0.8,5.6,3.9,5.6c3.1,0,6.4-2.5,7.3-5.6l10-34.3H746.5z"/>
	<path fill="#3F7F9C" d="M761.7,752.1l-9.5,34.3c-0.8,3.1,1,5.6,4.1,5.6s6.3-2.5,7-5.6l8.6-34.3H761.7z"/>
	<path fill="#3F7F9C" d="M776.9,752.1l-8.1,34.3c-0.7,3.1,1.2,5.6,4.3,5.6s6.2-2.5,6.8-5.6l7.2-34.3H776.9z"/>
	<path fill="#3F7F9C" d="M792.1,752.1l-6.8,34.3c-0.6,3.1,1.4,5.6,4.6,5.6s6.1-2.5,6.6-5.6l5.8-34.3H792.1z"/>
	<path fill="#3F7F9C" d="M802,786.4c-0.5,3.1,1.7,5.6,4.8,5.6h0c3.1,0,6-2.5,6.4-5.6l4.4-34.3h-10.2L802,786.4z"/>
	<path fill="#3F7F9C" d="M818.6,786.4c-0.4,3.1,1.9,5.6,5,5.6s5.9-2.5,6.1-5.6l3-34.3h-10.2L818.6,786.4z"/>
	<path fill="#3F7F9C" d="M835.2,786.4c-0.2,3.1,2.1,5.6,5.2,5.6s5.8-2.5,5.9-5.6l1.6-34.3h-10.2L835.2,786.4z"/>
	<path fill="#3F7F9C" d="M851.8,786.4c-0.1,3.1,2.3,5.6,5.5,5.6h0c3.1,0,5.7-2.5,5.7-5.6l0.2-34.3h-10.2L851.8,786.4z"/>
	<path fill="#3F7F9C" d="M868.1,752.1l0.2,34.3c0,3.1,2.6,5.6,5.7,5.6s5.6-2.5,5.5-5.6l-1.2-34.3H868.1z"/>
	<path fill="#3F7F9C" d="M883.3,752.1l1.6,34.3c0.1,3.1,2.8,5.6,5.9,5.6s5.5-2.5,5.2-5.6l-2.6-34.3H883.3z"/>
	<path fill="#3F7F9C" d="M908.7,752.1h-10.2l3,34.3c0.3,3.1,3,5.6,6.1,5.6s5.4-2.5,5-5.6L908.7,752.1z"/>
	<path fill="#3F7F9C" d="M923.9,752.1h-10.2l4.4,34.3c0.4,3.1,3.2,5.6,6.4,5.6c3.1,0,5.3-2.5,4.8-5.6L923.9,752.1z"/>
	<path fill="#3F7F9C" d="M939.1,752.1h-10.2l5.8,34.3c0.5,3.1,3.5,5.6,6.6,5.6s5.2-2.5,4.6-5.6L939.1,752.1z"/>
	<path fill="#3F7F9C" d="M954.3,752.1h-10.2l7.2,34.3c0.6,3.1,3.7,5.6,6.8,5.6s5.1-2.5,4.3-5.6L954.3,752.1z"/>
	<path fill="#3F7F9C" d="M969.5,752.1h-10.2l8.6,34.3c0.8,3.1,3.9,5.6,7,5.6h0c3.1,0,4.9-2.5,4.1-5.6L969.5,752.1z"/>
	<path fill="#3F7F9C" d="M984.7,752.1h-10.2l10,34.3c0.9,3.1,4.2,5.6,7.3,5.6s4.8-2.5,3.9-5.6L984.7,752.1z"/>
	<path fill="#3F7F9C" d="M1012.3,786.4l-12.3-34.3h-10.2l11.4,34.3c1,3.1,4.4,5.6,7.5,5.6S1013.4,789.5,1012.3,786.4z"/>
	<path fill="#3F7F9C" d="M856.6,643.7h17.3V514.6h7.1V385.5h-7.1v-116h7.1v-65.2c0-8.7-7.1-15.8-15.8-15.8
		c-8.7,0-15.8,7.1-15.8,15.8v65.2h7.1v116h-7.1v129.1h7.1V643.7z"/>
</g>
<g>
	<path fill="#3F7F9C" d="M1195.8,458.4l0,331.5c3.5,2.7,8.4,2.7,11.9,0v0l0-331.5L1195.8,458.4z"/>
	<rect x="1191.7" y="405.5" fill="#3F7F9C" width="20.1" height="5.7"/>
	<path fill="#3F7F9C" d="M1211.7,414.5L1211.7,414.5l-20.1-0.1v0.1c-14,6-16.5,29.9-16.5,29.9c2.7,1,5.4,1.8,7.8,2.4
		c0.3-3.5,1.3-12.1,5.2-16.9c-0.1,0.4-2.1,7.7-1.7,17.7c9.1,2,15.2,1.9,15.2,1.9s6.6,0.1,16.4-2.2c-0.1-5.1-1-10.3-1-10.3
		c2.1,3.2,3.3,6.7,4,9.6c2.3-0.6,4.7-1.4,7.2-2.2C1228.3,444.4,1225.8,420.5,1211.7,414.5z"/>
	<path fill="#3F7F9C" d="M1191.7,402.2h20.1v0c0,0,33.6-55.8,33.6-101.2c0,0-5-2.2-12.9-4.4c-0.4,9.1-2.2,30.3-10.1,50
		c0,0,6.3-30.2,5.3-51.2c-7.4-1.8-16.4-3.3-25.9-3.3c-9.8,0-17.7,0.9-24.1,2.1c0.9,39.4,10.2,70.8,10.5,71.9
		c-11.7-27.4-14.4-57.2-15-70.9c-10.5,2.6-15.1,5.8-15.1,5.8C1158.1,346.4,1191.7,402.2,1191.7,402.2L1191.7,402.2z"/>
</g>
<g>
	<path fill="#3F7F9C" d="M633.4,614.3h130.5c8.3,0,15.9-3.4,21.3-8.8c5.5-5.5,8.8-13,8.8-21.3c0-16.7-13.5-30.2-30.2-30.2H633.4
		c-8.3,0-15.9,3.4-21.3,8.8c-5.5,5.5-8.8,13-8.8,21.3C603.2,600.8,616.7,614.3,633.4,614.3z M762.5,590.3c3.5,0,6.4,2.2,6.4,5
		c0,2.7-2.9,5-6.4,5s-6.4-2.2-6.4-5C756.1,592.5,759,590.3,762.5,590.3z M738.9,567.3c6.1,0,11,3.8,11,8.5s-4.9,8.5-11,8.5
		c-6.1,0-11-3.8-11-8.5S732.8,567.3,738.9,567.3z M698.6,575.8c1.8,0,3.2,1.1,3.2,2.5c0,1.4-1.4,2.5-3.2,2.5c-1.8,0-3.2-1.1-3.2-2.5
		C695.4,577,696.9,575.8,698.6,575.8z M675.6,591c3.1,0,5.6,1.9,5.6,4.3c0,2.4-2.5,4.3-5.6,4.3c-3.1,0-5.6-1.9-5.6-4.3
		C670,592.9,672.5,591,675.6,591z M637.4,575.2c4,0,7.3,2.5,7.3,5.6c0,3.1-3.3,5.6-7.3,5.6c-4,0-7.3-2.5-7.3-5.6
		C630.1,577.7,633.4,575.2,637.4,575.2z"/>
	<path fill="#3F7F9C" d="M763.9,628.9H633.4c-11.7,0-22.4-4.7-30.2-12.4v23c0,8.3,3.4,15.9,8.8,21.3c5.5,5.5,13,8.8,21.3,8.8h130.5
		c16.7,0,30.2-13.5,30.2-30.2v-23C786.3,624.2,775.6,628.9,763.9,628.9z"/>
</g>
<g>
	<rect x="924.2" y="190.4" fill="#3F7F9C" width="282.9" height="13.2"/>
	<rect x="924.2" y="208.4" fill="#3F7F9C" width="282.9" height="13.5"/>
	<path fill="#3F7F9C" d="M1199.2,230.9H932.1c-4.3,0-7.9,3.5-7.9,7.9v0c0,4.3,3.5,7.9,7.9,7.9h267.1c4.3,0,7.9-3.5,7.9-7.9v0
		C1207,234.5,1203.5,230.9,1199.2,230.9z"/>
	<rect x="1055.7" y="256.1" fill="#3F7F9C" width="19.8" height="19.8"/>
	<path fill="#3F7F9C" d="M1083.6,282.9H1048c-6.2,0-11.9,2.9-15.7,7.8c-3.7,5-4.9,11.3-3.2,17.3l3.6,12.6c0.6,2.1,0.6,4.3-0.1,6.4
		l-2.4,7.2c-1.5,4.5-0.6,9.5,2.7,14c4.9,6.9,14.5,11.9,22.8,11.9v-8.8c-5.4,0-12.4-3.7-15.7-8.2c-1.6-2.2-2.1-4.2-1.5-6.1l2.4-7.2
		c1.3-3.8,1.3-7.8,0.2-11.7l-3.6-12.6c-1-3.3-0.3-6.8,1.8-9.5c2.1-2.8,5.2-4.3,8.7-4.3h35.6c3.4,0,6.6,1.6,8.7,4.3
		c2.1,2.7,2.7,6.2,1.8,9.5l-3.6,12.6c-1.1,3.8-1,7.9,0.2,11.7l2.4,7.2c0.6,1.8,0.1,3.8-1.4,5.9c-3.3,4.6-10.5,8.4-16,8.4V299h-19.8
		v79.4h-8V443h36.1v-64.6h-8.3V360c8.3,0,18.2-5.2,23.1-12c3.2-4.4,4.1-9.4,2.6-13.8l-2.4-7.2c-0.7-2.1-0.7-4.3-0.1-6.4l3.6-12.6
		c1.7-6,0.6-12.3-3.2-17.3C1095.5,285.8,1089.8,282.9,1083.6,282.9z"/>
	<path fill="#3F7F9C" d="M1075.5,458.9h-19.8v234.4h-8.6v79.9c0,10.2,8.3,18.6,18.6,18.6c10.3,0,18.6-8.3,18.6-18.6v-79.9h-8.6
		V458.9z M1065.6,774.8c-5.4,0-9.9-4.4-9.9-9.9c0-5.5,4.4-9.9,9.9-9.9c5.5,0,9.9,4.4,9.9,9.9
		C1075.5,770.4,1071.1,774.8,1065.6,774.8z"/>
</g>
</svg>
