<?xml version="1.0" encoding="utf-8"?>
<!-- Generator: Adobe Illustrator 21.0.0, SVG Export Plug-In . SVG Version: 6.00 Build 0)  -->
<svg version="1.1" id="Layer_1" xmlns="http://www.w3.org/2000/svg" xmlns:xlink="http://www.w3.org/1999/xlink" x="0px" y="0px"
	 viewBox="0 0 1400 980" style="enable-background:new 0 0 1400 980;" xml:space="preserve">
<style type="text/css">
	.st0{fill:#AB7751;}
	.st1{fill:#895634;}
	.st2{fill:#F07906;}
	.st3{fill:#55548A;}
	.st4{fill:#343466;}
	.st5{fill:#7B7BBF;}
	.st6{fill:#998876;}
	.st7{opacity:0.56;fill:#726050;}
	.st8{fill:#F2D0BA;}
	.st9{fill:#7474C4;}
	.st10{fill:#CE9C80;}
	.st11{opacity:0.56;fill:#BFAA97;}
	.st12{opacity:0.78;fill:#726050;}
	.st13{fill:#BFAA97;}
	.st14{fill:#726050;}
	.st15{fill:#98BAFF;}
	.st16{fill:#DDDDCB;}
	.st17{fill:#B5B4A1;}
	.st18{opacity:0.43;fill:#4269CF;}
	.st19{fill:#4269CF;}
	.st20{fill:#1B5FAA;}
	.st21{fill:#4187E0;}
	.st22{fill:#50AC74;}
	.st23{fill:#F28487;}
	.st24{fill:#BCBBA2;}
	.st25{fill:#256F67;}
	.st26{fill:#FFFFFF;}
	.st27{fill:#72482A;}
	.st28{fill:#442713;}
	.st29{opacity:0.36;fill:#774C2F;}
	.st30{opacity:0.58;fill:#774C2F;}
	.st31{opacity:0.58;}
	.st32{fill:#774C2F;}
	.st33{fill:#CE6209;}
	.st34{opacity:0.78;fill:#CE6209;}
	.st35{fill:#BBC980;}
	.st36{fill:#297D54;}
</style>
<g>
	<g>
		<path class="st0" d="M867.1,302.8h-28.4l-4.7,51c0,0,0,0,0,0c0,1.7,8.5,3.1,18.9,3.1c10.5,0,18.9-1.4,18.9-3.1c0,0,0,0,0,0
			L867.1,302.8z"/>
		<rect x="842.4" y="175" class="st1" width="20.9" height="127.5"/>
		<path class="st2" d="M928.2,349.1H777.5c-8.1,0-14.6,6.6-14.6,14.6v11.6h180v-11.6C942.8,355.6,936.3,349.1,928.2,349.1z"/>
		<polygon class="st3" points="940,375.3 974.7,460.9 731,460.9 765.7,375.3 		"/>
		<polygon class="st4" points="797.7,375.3 775.7,460.9 765.3,460.9 790.2,375.3 		"/>
		<polygon class="st4" points="826.5,460.9 834,375.3 818.8,375.3 805.1,460.9 		"/>
		<polygon class="st4" points="873.3,460.9 867.5,375.3 860.8,375.3 864,460.9 		"/>
		<polygon class="st4" points="901,375.3 920.3,460.9 914,460.9 896.5,375.3 		"/>
		<polygon class="st5" points="953.3,460.9 924.7,375.3 912.5,375.3 936.3,460.9 		"/>
		<polygon class="st5" points="779.5,375.3 750.2,460.9 742.9,460.9 774.3,375.3 		"/>
		<polygon class="st5" points="847.8,460.9 849.3,375.3 844.1,375.3 840.5,460.9 		"/>
		<polygon class="st5" points="887.3,375.3 901.1,460.9 888.6,460.9 878.4,375.3 		"/>
	</g>
	<g>
		<polygon class="st6" points="1290.8,379.1 1312.8,460.9 1091.3,460.9 1113.3,379.1 		"/>
		<polygon class="st7" points="1230.7,379.1 1237.8,460.9 1218.6,460.9 1215.4,379.1 		"/>
		<path class="st8" d="M1249.9,302.8H1156c-25.5,0-46.1,20.6-46.1,46.1v30.2H1296V349C1296,323.5,1275.4,302.8,1249.9,302.8z
			 M1172.1,358.4h-41.2c-5.2,0-9.4-4.2-9.4-9.4c0-19.1,15.5-34.5,34.5-34.5h16.1V358.4z M1216.5,354.7c0,7.4-6,13.4-13.4,13.4l0,0
			c-7.4,0-13.4-6-13.4-13.4v-24.7c0-7.4,6-13.4,13.4-13.4l0,0c7.4,0,13.4,6,13.4,13.4V354.7z M1275.1,358.4h-41.2v-43.9h16.1
			c19.1,0,34.5,15.5,34.5,34.5C1284.5,354.1,1280.3,358.4,1275.1,358.4z"/>
		<path class="st9" d="M1203,183.9L1203,183.9c-9.4,0-17,7.6-17,17v102.5h34V200.9C1220,191.5,1212.4,183.9,1203,183.9z"/>
		<rect x="1186" y="282.2" class="st3" width="34" height="21.2"/>
		<rect x="1172.1" y="302.8" class="st10" width="7.2" height="76.3"/>
		<rect x="1226.7" y="302.8" class="st10" width="7.2" height="76.3"/>
		<polygon class="st11" points="1102.4,460.9 1122.2,379.1 1135.5,379.1 1119.1,460.9 		"/>
		<polygon class="st12" points="1168.4,379.1 1160,460.9 1136.7,460.9 1149.7,379.1 		"/>
		<polygon class="st13" points="1189.5,379.1 1186.4,460.9 1174.5,460.9 1180,379.1 		"/>
		<polygon class="st14" points="1251,379.1 1263.1,460.9 1254.2,460.9 1243.8,379.1 		"/>
		<polygon class="st11" points="1275.1,460.9 1260.6,379.1 1265.6,379.1 1281.3,460.9 		"/>
		<polygon class="st14" points="1281.5,379.1 1301.2,460.9 1290.6,460.9 1273,379.1 		"/>
		<polygon class="st13" points="1206.8,379.1 1208,460.9 1199.5,460.9 1200,379.1 		"/>
	</g>
	<g>
		<path class="st15" d="M921,709.7l-17-72.6c-6.5-29.5-47.7-41.5-47.7-41.5H807l-25.7,22.9v182.8c0,8.7,7,15.7,15.7,15.7h111.5
			c8.7,0,15.7-7,15.7-15.7v-65.5C924.4,727,923.2,718.2,921,709.7z M889.5,727.9c-9.4,0-17.4-7-18.7-16.3l-8.2-60.1
			c-1.3-9.9,6.3-18.6,16.3-18.6c5.4,0,10,4,10.7,9.3l10.2,74C900.5,722.4,895.8,727.9,889.5,727.9z"/>
		<path class="st16" d="M853.1,575.3h-43.1c-1.8,0-3.2,1.4-3.2,3.2v17.1h49.5v-17.1C856.4,576.7,854.9,575.3,853.1,575.3z"/>
		<rect x="806.9" y="590.4" class="st17" width="49.5" height="5.2"/>
		<path class="st16" d="M842.2,545.3h-24c-3.1,0-5.6,2.5-5.6,5.6v24.4h35.1v-24.4C847.8,547.8,845.3,545.3,842.2,545.3z"/>
		<rect x="812.7" y="569.1" class="st17" width="35.1" height="6.2"/>
		<path class="st18" d="M910.2,720.9c-8.1-49.7-6-97.5-31.1-100.4c-7.6-0.9-15,3.7-20.1,10.2c-5.1,6.5-7.4,15.1-6.3,23.6l7.2,58.5
			c1.9,15.8,14.2,27.7,28.5,27.7C902.1,740.4,911.6,729.2,910.2,720.9z M889.5,727.9c-9.4,0-17.4-7-18.7-16.3l-8.2-60.1
			c-1.3-9.9,6.3-18.6,16.3-18.6c5.4,0,10,4,10.7,9.3l10.2,74C900.5,722.4,895.8,727.9,889.5,727.9z"/>
		<path class="st19" d="M805.1,618.5c0-2.7,8.9-14.5,15.5-22.9H807l-25.7,22.9v182.8c0,8.7,7,15.7,15.7,15.7h8
			C805.1,740.3,805.1,621.4,805.1,618.5z"/>
	</g>
	<g>
		<polygon class="st11" points="1325.7,760.7 1078.4,760.7 1063.1,817.1 1341,817.1 		"/>
		<path class="st17" d="M1286.3,789.3h-168.5c-14.2,0-25.8-11.5-25.8-25.8v-7.1c0-6,4.8-10.8,10.8-10.8h198.4
			c6,0,10.8,4.8,10.8,10.8v7.1C1312.1,777.7,1300.5,789.3,1286.3,789.3z"/>
		<path class="st20" d="M1227.5,722.1v23.5h-50.9v-23.5c0-6.9,5.6-12.5,12.5-12.5h25.9C1221.9,709.6,1227.5,715.2,1227.5,722.1z"/>
		<rect x="1189.2" y="583.7" class="st21" width="25" height="126"/>
	</g>
	<g>
		<path class="st22" d="M147.9,223.7c-1.7,7.1-4.6,12-9.2,17.8c-7.8,9.7-9.6,22.8-4.7,34.2c3.6,8.4,4.1,20.1-7.1,34.5
			c-23.7,30.5-34.7,32.2-34.7,74.5v59.8c0,9.1,7.3,16.4,16.4,16.4h91.7c9.1,0,16.4-7.3,16.4-16.4V320.3l-27.5-96.6H147.9z"/>
		<rect x="147.7" y="203" class="st23" width="41.5" height="21.2"/>
		<path class="st16" d="M189.2,203h21.4c0,0-20.3-38.3-33-40h-57.6v23.5c0,0,11.4-2.1,16.5,6.1c2.5,4.1,3.6,8.7,11.2,10.4
			C147.7,203,188.6,202.4,189.2,203z"/>
		<polygon class="st23" points="119.9,166.1 105.3,168.8 105.3,181 119.9,183.7 		"/>
		<path class="st24" d="M139.9,198.3L117,239h-4.4l13.7-52.6c3.5,0.5,7.7,2,10.2,6.2C137.6,194.5,138.5,196.5,139.9,198.3z"/>
		<path class="st25" d="M157,338.9L157,338.9c-24.1,0-43.6,19.5-43.6,43.6v53.8h87.3v-53.8C200.6,358.5,181.1,338.9,157,338.9z"/>
		<path class="st26" d="M175.7,355.7l0.9,1.6c1.5,2.8,3.8,5,6.6,6.6l1.6,0.9l-1.6,0.9c-2.8,1.5-5,3.8-6.6,6.6l-0.9,1.6l-0.9-1.6
			c-1.5-2.8-3.8-5-6.6-6.6l-1.6-0.9l1.6-0.9c2.8-1.5,5-3.8,6.6-6.6L175.7,355.7z"/>
		<path class="st26" d="M132.3,371.6l0.5,1c0.9,1.7,2.3,3.1,4,4l1,0.5l-1,0.5c-1.7,0.9-3.1,2.3-4,4l-0.5,1l-0.5-1
			c-0.9-1.7-2.3-3.1-4-4l-1-0.5l1-0.5c1.7-0.9,3.1-2.3,4-4L132.3,371.6z"/>
		<path class="st26" d="M182,398.6l0.9,1.7c1.6,2.8,3.9,5.2,6.7,6.7l1.7,0.9l-1.7,0.9c-2.8,1.6-5.2,3.9-6.7,6.7l-0.9,1.7l-0.9-1.7
			c-1.6-2.8-3.9-5.2-6.7-6.7l-1.7-0.9l1.7-0.9c2.8-1.6,5.2-3.9,6.7-6.7L182,398.6z"/>
		<path class="st26" d="M158.8,387.5l0.5,1c0.9,1.7,2.3,3.1,4,4l1,0.5l-1,0.5c-1.7,0.9-3.1,2.3-4,4l-0.5,1l-0.5-1
			c-0.9-1.7-2.3-3.1-4-4l-1-0.5l1-0.5c1.7-0.9,3.1-2.3,4-4L158.8,387.5z"/>
		<path class="st26" d="M144.4,414l0.6,1.1c1,1.8,2.5,3.4,4.4,4.4l1.1,0.6l-1.1,0.6c-1.8,1-3.4,2.5-4.4,4.4l-0.6,1.1l-0.6-1.1
			c-1-1.8-2.5-3.4-4.4-4.4l-1.1-0.6l1.1-0.6c1.8-1,3.4-2.5,4.4-4.4L144.4,414z"/>
	</g>
	<g>
		<path class="st20" d="M511.4,251.6h-16.3c-1.6,0-2.9,1.3-2.9,2.9v15h22v-15C514.3,252.9,513,251.6,511.4,251.6z"/>
		<rect x="494.7" y="174.9" class="st21" width="17.1" height="76.8"/>
		<path class="st27" d="M548.8,317.6l-3.7-11.9c-39.2,8.1-66.9,5-83.1,1l-3.8,12.1C476,323.1,506.2,326.3,548.8,317.6z"/>
		<path class="st0" d="M552.6,329.9c-47.9,10.5-80.5,5.9-98.2,1l-34.5,111.2c0,0,37.8,17.2,83.1,18.8v0c0.3,0,0.5,0,0.8,0
			c0.3,0,0.5,0,0.8,0v0c45.3-1.6,83.1-18.8,83.1-18.8L552.6,329.9z"/>
		<path class="st28" d="M552.6,329.9l-3.8-12.3c-42.6,8.8-72.8,5.5-90.6,1.2l-3.8,12.2C472.1,335.8,504.7,340.4,552.6,329.9z"/>
		<path class="st29" d="M440.5,449.7l24-116.4c-2.1-0.4-4.1-0.8-6-1.3l-27.4,114.6C433.8,447.5,437,448.6,440.5,449.7z"/>
		<path class="st30" d="M466.8,456.5l14.3-120.9c-4.5-0.4-8.6-0.9-12.3-1.5l-21.6,117.7C453.1,453.4,459.7,455,466.8,456.5z"/>
		<path class="st29" d="M484.5,459.4l7.6-123.2c-2.7-0.1-5.3-0.2-7.8-0.4l-12.4,121.7C476,458.2,480.2,458.8,484.5,459.4z"/>
		<path class="st30" d="M502.9,460.9L502.9,460.9c0.3,0,0.5,0,0.8,0c0.3,0,0.5,0,0.8,0v0c3.9-0.1,7.8-0.4,11.5-0.7l-4.6-124.3
			c-4.5,0.3-8.9,0.4-13,0.4l-3.7,124.2C497.3,460.6,500.1,460.8,502.9,460.9z"/>
		<path class="st30" d="M576.9,446.2l-27.7-115.6c-3.2,0.7-6.4,1.3-9.5,1.8L562,451.2C567.9,449.4,572.9,447.7,576.9,446.2z"/>
		<path class="st29" d="M533.8,457.7l-11.6-122.9c-2.4,0.3-4.8,0.5-7.1,0.7l7.1,123.9C526.2,459,530.1,458.4,533.8,457.7z"/>
		<path class="st30" d="M554.1,453.3l-19.3-120.1c-1.1,0.2-2.2,0.3-3.3,0.5l17.3,120.9C550.7,454.2,552.4,453.8,554.1,453.3z"/>
		<path class="st0" d="M545.1,305.6l-2.4-7.8c-4.1-17.6-18.7-25.3-27.7-28.4h-22.6c-9,3.1-23.6,10.8-27.7,28.4l-2.7,8.8
			C478.2,310.6,505.9,313.7,545.1,305.6z"/>
		<g class="st31">
			<path class="st32" d="M469.7,308.3l6-29.3c-2.3,2.1-4.4,4.5-6.3,7.4l-5,20.8C466.1,307.6,467.9,308,469.7,308.3z"/>
			<path class="st32" d="M484.2,310.1l4.7-39.3c-2.9,1.3-6.2,2.9-9.4,5.2l-6,32.8C476.7,309.4,480.3,309.8,484.2,310.1z"/>
			<path class="st32" d="M493.7,310.6l2.5-41.1h-3.9c-0.4,0.1-0.9,0.3-1.3,0.5l-4.1,40.4C489.1,310.5,491.3,310.6,493.7,310.6z"/>
			<path class="st32" d="M510.3,310.3l-1.5-40.8h-8.5l-1.2,41.2C502.6,310.7,506.4,310.6,510.3,310.3z"/>
			<path class="st32" d="M543.3,306l-4.1-17.2c-2.6-4.9-6.1-8.6-9.8-11.6l5.7,30.3C537.8,307,540.5,306.5,543.3,306z"/>
			<path class="st32" d="M519.8,309.6l-3.7-39.7c-0.4-0.1-0.8-0.3-1.2-0.4h-3.6l2.3,40.6C515.7,310,517.8,309.8,519.8,309.6z"/>
			<path class="st32" d="M530.8,308.2l-5.4-33.8c-0.8-0.5-1.7-1-2.5-1.5l5.1,35.6C528.9,308.5,529.8,308.3,530.8,308.2z"/>
		</g>
	</g>
	<g>
		<path class="st33" d="M154.4,536.3L154.4,536.3c-9.7,0-17.5,7.9-17.5,17.5v102.4H172V553.9C172,544.2,164.1,536.3,154.4,536.3z
			 M162,580.9c0,4.5-3.6,8.1-8.1,8.1h0c-4.5,0-8.1-3.6-8.1-8.1v-24.7c0-4.5,3.6-8.1,8.1-8.1h0c4.5,0,8.1,3.6,8.1,8.1V580.9z"/>
		<path class="st33" d="M244,701.8c-0.4-49.3-43.5-49.8-49.4-49.6c-0.6,0-1.2,0-1.7,0c-11.1-0.3-20.1-5.7-20.1-5.7h-35.6
			c0,0-10,5.3-21.1,5.7c-0.6,0-1.2,0-1.7,0c-5.9-0.2-48.9,0.3-49.4,49.6L59,817.1h12.9l4.8-111.3c0.4-42.8,37.8-43.2,42.9-43.1
			c0.5,0,1,0,1.5,0c9.6-0.3,18.3-4.9,18.3-4.9h30.9c0,0,7.9,4.6,17.5,4.9c0.5,0,1,0,1.5,0c5.1-0.1,42.5,0.3,42.9,43.1l4.8,111.3
			h12.9L244,701.8z"/>
		<path class="st2" d="M237,817.1H71.9l4.8-111.3c0.4-42.8,37.8-43.2,42.9-43.1c0.5,0,1,0,1.5,0c9.6-0.3,18.3-4.9,18.3-4.9h30.9
			c0,0,7.9,4.6,17.5,4.9c0.5,0,1,0,1.5,0c5.1-0.1,42.5,0.3,42.9,43.1L237,817.1z"/>
		<path class="st34" d="M119,817.1V714.3c0-5.3-4.3-9.5-9.5-9.5c-5.3,0-9.5,4.3-9.5,9.5v102.8H119z"/>
		<path class="st34" d="M165.3,715.4v101.7h-19V715.4c0-2.9,1.1-5.6,2.8-7.5c1.7-1.9,4.1-3.1,6.7-3.1
			C161,704.8,165.3,709.5,165.3,715.4z"/>
		<path class="st34" d="M208.8,715.4v101.7h-19V715.4c0-2.9,1.1-5.6,2.8-7.5c1.7-1.9,4.1-3.1,6.7-3.1
			C204.5,704.8,208.8,709.5,208.8,715.4z"/>
	</g>
	<g>
		<path class="st35" d="M558.7,593.9v205.5c0,9.8-7.9,17.7-17.7,17.7h-74.8c-9.8,0-17.7-7.9-17.7-17.7V602.3l14.4-9.8l63.3-43
			l10-6.8C536.2,542.7,559.8,570.3,558.7,593.9z"/>
		<path class="st22" d="M526.2,549.5l-63.3,43l-14.4,9.8v47.1c20.1,4.8,42.3,7.4,65.8,7.4c15.4,0,30.3-1.1,44.4-3.3v-59.7
			c1.1-23.6-22.5-51.2-22.5-51.2L526.2,549.5z"/>
		<path class="st36" d="M519.4,617.7c-16.6,8-40.2-9.6-56.4-25.2l63.3-43C543.7,575,548.2,603.7,519.4,617.7z"/>
		
			<rect x="490.4" y="524.8" transform="matrix(0.5602 0.8283 -0.8283 0.5602 677.048 -175.0079)" class="st35" width="25.8" height="50.7"/>
		<polygon class="st22" points="475.1,553.6 464,523 490.4,505.2 517.1,525.2 		"/>
		<path class="st22" d="M541.4,685.7h-71.9c-3.8,0-6.9,3.1-6.9,6.9v59c0,3.8,3.1,6.9,6.9,6.9h71.9c3.8,0,6.9-3.1,6.9-6.9v-59
			C548.2,688.7,545.2,685.7,541.4,685.7z"/>
		<rect x="485" y="708.3" class="st36" width="46.4" height="9.1"/>
		<rect x="478" y="727.1" class="st36" width="60.4" height="9.1"/>
	</g>
</g>
</svg>
