<?xml version="1.0" encoding="utf-8"?>
<!-- Generator: Adobe Illustrator 18.0.0, SVG Export Plug-In . SVG Version: 6.00 Build 0)  -->
<!DOCTYPE svg PUBLIC "-//W3C//DTD SVG 1.1//EN" "http://www.w3.org/Graphics/SVG/1.1/DTD/svg11.dtd">
<svg version="1.1" id="Layer_1" xmlns="http://www.w3.org/2000/svg" xmlns:xlink="http://www.w3.org/1999/xlink" x="0px" y="0px"
	 width="1400px" height="980px" viewBox="0 0 1400 980" enable-background="new 0 0 1400 980" xml:space="preserve">
<g>
	<g>
		<path fill="#3F7F9C" d="M281.6,610.9c0,141.2-100.7,188.5-100.7,188.5c43.6,32.1,79.3,5.3,79.3,5.3l-16.5,30.2
			c64.5-5.4,80.6-43.8,80.6-43.8v41.7c70.2-66.8,32.1-201.8,19-221.9H281.6z"/>
	</g>
	<g>
		<rect x="302.8" y="182.1" fill="#3F7F9C" width="17.4" height="400.8"/>
	</g>
	<g>
		<path fill="#3F7F9C" d="M312,573.8c-28.8,0-30,29.4-30,29.4h30h30C342,603.2,340.8,573.8,312,573.8z"/>
	</g>
	<g>
		<path fill="#3F7F9C" d="M332.3,207.7h-12.1v-6.8h7.1c2-7.4,7-30-1.3-41.2c-3.1-4.2-7.9-6.3-14.5-6.3c-6.6,0-11.4,2.1-14.5,6.3
			c-7.5,10.2-3.9,31.4-1.3,41.2h7.1v6.8h-12.1l-0.7-2.4c-0.4-1.4-10.3-33.5,1.6-49.7c4.4-6,11.2-9.1,20-9.1c8.8,0,15.6,3.1,20,9.1
			c11.9,16.2,2,48.3,1.6,49.7L332.3,207.7z"/>
	</g>
</g>
<g>
	<g>
		<g>
			<path fill="#3F7F9C" d="M497.8,451.3h-23.1V191.1c0-5,4-9,9-9h5.2c5,0,9,4,9,9V451.3z"/>
		</g>
		<g>
			<path fill="#3F7F9C" d="M546.9,567.5c0-0.5,0-0.9,0-1.4c0-33.5-27.2-60.7-60.7-60.7c-33.5,0-60.7,27.2-60.7,60.7
				c0,0.5,0,0.9,0,1.4H546.9z"/>
		</g>
		<g>
			<path fill="#3F7F9C" d="M555.8,602.6H416.7c-5.5,0-10-4.5-10-10v-5.8c0-5.5,4.5-10,10-10h139.2c5.5,0,10,4.5,10,10v5.8
				C565.8,598.1,561.3,602.6,555.8,602.6z"/>
		</g>
		<g>
			<path fill="#3F7F9C" d="M486.3,210.6c-15.7,0-28.5-12.8-28.5-28.5s12.8-28.5,28.5-28.5c15.7,0,28.5,12.8,28.5,28.5
				S502,210.6,486.3,210.6z M486.3,160.4c-12,0-21.7,9.7-21.7,21.7c0,12,9.7,21.7,21.7,21.7c12,0,21.7-9.7,21.7-21.7
				C507.9,170.1,498.2,160.4,486.3,160.4z"/>
		</g>
	</g>
	<g>
		<rect x="462.8" y="469.8" fill="#3F7F9C" width="46.9" height="53.5"/>
	</g>
	<g>
		<path fill="#3F7F9C" d="M511.1,462h-50.2c-2.3,0-4.2-1.9-4.2-4.2v-2.4c0-2.3,1.9-4.2,4.2-4.2h50.2c2.3,0,4.2,1.9,4.2,4.2v2.4
			C515.3,460.2,513.4,462,511.1,462z"/>
	</g>
</g>
<g>
	<g>
		<path fill="#3F7F9C" d="M718.6,581.1l0-5.8c0-10.2-8.3-18.5-18.5-18.5l-42.5,0c-10.2,0-18.5,8.3-18.5,18.5v5.8H718.6z"/>
	</g>
	<g>
		<path fill="#3F7F9C" d="M639.2,593.6l0,172.9c0,10.2,8.3,18.5,18.5,18.5l42.5,0c10.2,0,18.5-8.3,18.5-18.5l0-172.9H639.2z"/>
	</g>
	<g>
		<path fill="#3F7F9C" d="M619.5,707.7H449.2c-4.1,0-7.4-3.3-7.4-7.4l0-7.5c0-4.1,3.3-7.4,7.4-7.4l154.3,0c8.9,0,16.1,7.2,16.1,16.1
			L619.5,707.7z"/>
	</g>
	<g>
		<path fill="#3F7F9C" d="M690.2,808.9c-4.5-1.8-9.4-2.6-14.3-2.6l-56.4,0l0-85.3l-149,0c0,0,7.3,63.8,78.7,63.8l0,21.6h-57.6
			c-4.9,0-9.7,0.8-14.3,2.6c-7.2,2.8-15.3,8.6-15.3,20.3l0,10.3l71.4,0h86h86v-10.3C705.5,817.4,697.4,811.7,690.2,808.9z"/>
	</g>
</g>
<g>
	<g>
		<polygon fill="#3F7F9C" points="872.9,839.5 842.1,621.9 864.1,839.5 854.8,839.5 835.8,621.9 845,839.5 834.2,839.5 829.1,621.9 
			822.4,839.5 812.9,839.5 822.1,621.9 803,839.5 793.8,839.5 815.7,621.9 784.9,839.5 773.7,839.5 810.2,610.9 847,610.9 
			883.5,839.5 		"/>
	</g>
	<g>
		<path fill="#3F7F9C" d="M832.9,567.5h-7.6c-7.3,0-13.2,5.9-13.2,13.2v21.8h34.1v-21.8C846.1,573.4,840.2,567.5,832.9,567.5z"/>
	</g>
	<g>
		<rect x="820.2" y="235.7" fill="#3F7F9C" width="16.4" height="315"/>
	</g>
	<g>
		<rect x="816.1" y="182.1" fill="#3F7F9C" width="24.6" height="42"/>
	</g>
	<g>
		<path fill="#3F7F9C" d="M828.4,137.2c-14.8,0-26.8,12-26.8,26.8c0,10.4,5.9,19.4,14.5,23.9c3.7,1.9,7.9,3,12.3,3
			c4.4,0,8.6-1.1,12.3-3c8.7-4.4,14.6-13.5,14.6-23.9C855.2,149.2,843.2,137.2,828.4,137.2z M828.4,180c-8.8,0-16-7.2-16-16
			c0-8.8,7.2-16,16-16c8.8,0,16,7.2,16,16C844.4,172.9,837.2,180,828.4,180z"/>
	</g>
</g>
<g>
	<g>
		<path fill="#3F7F9C" d="M684.2,227.8H630c-5.6,0-10.2-4.6-10.2-10.2v-19.7c0-5.6,4.6-10.2,10.2-10.2h54.2
			c5.6,0,10.2,4.6,10.2,10.2v19.7C694.4,223.2,689.8,227.8,684.2,227.8z"/>
	</g>
	<g>
		<rect x="635.7" y="149.9" fill="#3F7F9C" width="42.6" height="26.6"/>
	</g>
	<g>
		<path fill="#3F7F9C" d="M768.5,307.5l-64-68.7h-94.3l-16.8,36.7c-7.5,16.3-11.3,33.9-11.3,51.8v137.8c0,12.4,10.1,22.5,22.5,22.5
			h96.9c12.4,0,22.5-10.1,22.5-22.5v-44.4c0-11.2,4.3-22,11.9-30.1l32.6-34.7C781.2,342.3,781.2,321.1,768.5,307.5z M756.3,335.2
			l-22.2,25.1c-3.1,3.5-8.8,2.8-10.9-1.4l-20.7-40.2c-0.5-0.9-0.7-2-0.7-3.1v-35c0-6.2,7.7-9,11.7-4.3l42.9,50
			C758.6,329,758.5,332.7,756.3,335.2z"/>
	</g>
</g>
<g>
	<g>
		<polygon fill="#3F7F9C" points="1061.2,149.4 1026.1,149.4 919,149.4 931,190.3 1026.1,190.3 1061.2,190.3 1156.3,190.3 
			1168.3,149.4 		"/>
	</g>
	<g>
		<path fill="#3F7F9C" d="M1156.7,200.4h-107.1v0H934c0,0-3,16,17,16c20,0,84.6-14,84.6,19h5.5v0h14c0-33,64.5-19,84.6-19
			C1159.7,216.5,1156.7,200.4,1156.7,200.4z"/>
	</g>
	<g>
		<rect x="1037" y="246.2" fill="#3F7F9C" width="17.5" height="110.7"/>
	</g>
</g>
<g>
	<g>
		<g>
			<path fill="#3F7F9C" d="M1149.4,412.7v92.7c-1.7,3.6-3.7,7.3-6,10.9c-20.5,33.2-53.5,50-98.3,50c-44.7,0-77.8-16.8-98.3-50
				c-2.3-3.7-4.2-7.3-6-10.9v-92.7H1149.4z"/>
			<path fill="#3F7F9C" d="M1149.4,524.5v6.3c0,49.9-40.4,90.3-90.3,90.3h-27.8c-49.9,0-90.3-40.4-90.3-90.3v-6.3
				c16.1,24.2,46.9,51.3,104.2,51.3C1102.5,575.8,1133.3,548.8,1149.4,524.5z"/>
		</g>
	</g>
	<g>
		<g>
			<path fill="#3F7F9C" d="M1074.5,702.9c-0.6-2.2-1.4-4.2-2.2-6.2c-4.1-9.7-10.1-17.8-11.9-33.5c-2.7-23.9,9-35.5,9-35.5
				s-0.7,0.2-1.9,0.5c-14.6,3.7-29.9,3.7-44.5,0c-1.2-0.3-1.9-0.5-1.9-0.5s11.7,11.6,9,35.5c-1.8,15.7-7.8,23.8-11.9,33.5
				c-0.8,2-1.6,4-2.2,6.2c-0.6,2.3-0.9,4.7-0.9,7.1c0,16.7,13.5,30.2,30.2,30.2c16.7,0,30.2-13.5,30.2-30.2
				C1075.4,707.6,1075.1,705.2,1074.5,702.9z M1045.2,723.7c-6.7,0-12.1-5.4-12.1-12.1c0-6.7,5.4-12.1,12.1-12.1
				c6.7,0,12.2,5.4,12.2,12.1C1057.3,718.3,1051.9,723.7,1045.2,723.7z"/>
		</g>
	</g>
</g>
<g>
	<g>
		<polygon fill="#3F7F9C" points="944.9,839.5 931,839.5 948.8,801.8 957.3,801.8 		"/>
	</g>
	<g>
		<polygon fill="#3F7F9C" points="964.5,839.5 950.7,839.5 960.9,801.8 969.4,801.8 		"/>
	</g>
	<g>
		<polygon fill="#3F7F9C" points="984.2,839.5 970.3,839.5 973,801.8 981.5,801.8 		"/>
	</g>
	<g>
		<polygon fill="#3F7F9C" points="1003.8,839.5 990,839.5 985.1,801.8 993.6,801.8 		"/>
	</g>
	<g>
		<polygon fill="#3F7F9C" points="1023.5,839.5 1009.6,839.5 997.2,801.8 1005.7,801.8 		"/>
	</g>
	<g>
		<path fill="#3F7F9C" d="M1159.7,791h-73.6H944v10.8h142l14.2,6.7c0,0,69.2,0,69.2,0c4.8,0,8.7-3.9,8.7-8.7l0,0
			c0-4.8-3.9-8.7-8.7-8.7H1159.7z"/>
	</g>
</g>
</svg>
